<svg width="133" height="168" viewBox="0 0 133 168" fill="none" xmlns="http://www.w3.org/2000/svg">
<circle cx="120" cy="12" r="10" fill="#2F4EEA"/>
<path d="M84.5483 59.3778C83.9801 53.6487 81.5417 49.1979 77.233 46.0256C72.9242 42.8532 67.0767 41.267 59.6903 41.267C54.6714 41.267 50.4337 41.9773 46.9773 43.3977C43.5208 44.7708 40.8693 46.6884 39.0227 49.1506C37.2235 51.6127 36.3239 54.4062 36.3239 57.5312C36.2292 60.1354 36.7737 62.4081 37.9574 64.3494C39.1884 66.2907 40.8693 67.9716 43 69.392C45.1307 70.7651 47.5928 71.9725 50.3864 73.0142C53.1799 74.0085 56.1629 74.8608 59.3352 75.571L72.4034 78.696C78.7481 80.1165 84.572 82.0104 89.875 84.3778C95.178 86.7453 99.7708 89.6572 103.653 93.1136C107.536 96.5701 110.543 100.642 112.673 105.33C114.851 110.017 115.964 115.391 116.011 121.452C115.964 130.353 113.691 138.071 109.193 144.605C104.742 151.092 98.303 156.134 89.875 159.733C81.4943 163.284 71.3854 165.06 59.5483 165.06C47.8059 165.06 37.5786 163.26 28.8665 159.662C20.2017 156.063 13.4309 150.737 8.55398 143.682C3.72443 136.58 1.19129 127.796 0.954545 117.332H30.7131C31.0445 122.209 32.4413 126.281 34.9034 129.548C37.4129 132.768 40.7509 135.206 44.9176 136.864C49.1316 138.473 53.8902 139.278 59.1932 139.278C64.4015 139.278 68.9233 138.521 72.7585 137.006C76.6411 135.491 79.6477 133.384 81.7784 130.685C83.9091 127.986 84.9744 124.884 84.9744 121.381C84.9744 118.114 84.0038 115.367 82.0625 113.142C80.1686 110.917 77.375 109.023 73.6818 107.46C70.036 105.898 65.5616 104.477 60.2585 103.199L44.4205 99.2216C32.1572 96.2386 22.4744 91.5748 15.3722 85.2301C8.26989 78.8854 4.74242 70.339 4.78977 59.5909C4.74242 50.7841 7.08617 43.09 11.821 36.5085C16.6032 29.9271 23.161 24.7898 31.4943 21.0966C39.8277 17.4034 49.2973 15.5568 59.9034 15.5568C70.6989 15.5568 80.1212 17.4034 88.1705 21.0966C96.2671 24.7898 102.564 29.9271 107.062 36.5085C111.561 43.09 113.881 50.7131 114.023 59.3778H84.5483Z" fill="#EDEDED"/>
</svg>
