<svg width="243" height="243" viewBox="0 0 243 243" fill="none" xmlns="http://www.w3.org/2000/svg">
<g clip-path="url(#clip0_161_72)">
<rect width="243" height="243" rx="15" fill="#343745"/>
<path d="M145.548 91.3778C144.98 85.6487 142.542 81.1979 138.233 78.0256C133.924 74.8532 128.077 73.267 120.69 73.267C115.671 73.267 111.434 73.9773 107.977 75.3977C104.521 76.7708 101.869 78.6884 100.023 81.1506C98.2235 83.6127 97.3239 86.4062 97.3239 89.5312C97.2292 92.1354 97.7737 94.4081 98.9574 96.3494C100.188 98.2907 101.869 99.9716 104 101.392C106.131 102.765 108.593 103.973 111.386 105.014C114.18 106.009 117.163 106.861 120.335 107.571L133.403 110.696C139.748 112.116 145.572 114.01 150.875 116.378C156.178 118.745 160.771 121.657 164.653 125.114C168.536 128.57 171.543 132.642 173.673 137.33C175.851 142.017 176.964 147.391 177.011 153.452C176.964 162.353 174.691 170.071 170.193 176.605C165.742 183.092 159.303 188.134 150.875 191.733C142.494 195.284 132.385 197.06 120.548 197.06C108.806 197.06 98.5786 195.26 89.8665 191.662C81.2017 188.063 74.4309 182.737 69.554 175.682C64.7244 168.58 62.1913 159.796 61.9545 149.332H91.7131C92.0445 154.209 93.4413 158.281 95.9034 161.548C98.4129 164.768 101.751 167.206 105.918 168.864C110.132 170.473 114.89 171.278 120.193 171.278C125.402 171.278 129.923 170.521 133.759 169.006C137.641 167.491 140.648 165.384 142.778 162.685C144.909 159.986 145.974 156.884 145.974 153.381C145.974 150.114 145.004 147.367 143.062 145.142C141.169 142.917 138.375 141.023 134.682 139.46C131.036 137.898 126.562 136.477 121.259 135.199L105.42 131.222C93.1572 128.239 83.4744 123.575 76.3722 117.23C69.2699 110.885 65.7424 102.339 65.7898 91.5909C65.7424 82.7841 68.0862 75.09 72.821 68.5085C77.6032 61.9271 84.161 56.7898 92.4943 53.0966C100.828 49.4034 110.297 47.5568 120.903 47.5568C131.699 47.5568 141.121 49.4034 149.17 53.0966C157.267 56.7898 163.564 61.9271 168.062 68.5085C172.561 75.09 174.881 82.7131 175.023 91.3778H145.548Z" fill="white"/>
<circle cx="183" cy="44" r="10" fill="#2F4EEA"/>
<path d="M-33.4297 169.621C-30.2649 167.605 -25.6435 165.58 -21.2431 164.067C-15.4542 162.077 -10.3268 158.076 -6.57895 154.547C-4.60011 152.684 -2.83108 150.302 1.91825 143.401C6.66758 136.499 14.25 125.054 18.5138 118.371C22.7776 111.688 23.4929 110.114 24.5767 107.444C25.6606 104.773 27.0912 101.053 29.6165 93.4146C32.1419 85.7758 35.7185 74.3306 38.1332 66.0024C40.548 57.6743 41.6925 52.8101 42.9259 48.8021C44.1593 44.7941 45.4469 41.7897 47.1117 38.6683C48.7764 35.5469 50.7793 32.3995 53.8856 28.489C56.9918 24.5786 61.1407 20.0005 66.5685 15.2099C71.9963 10.4194 78.5773 5.55522 85.7588 1.18956C92.9402 -3.17609 100.523 -6.89579 108.435 -10.2426C116.347 -13.5895 124.358 -16.4508 129.272 -18.0679C134.186 -19.6849 135.76 -19.9711 137.358 -20.4046C138.955 -20.8381 140.529 -21.4104 142.584 -22" stroke="white" stroke-opacity="0.46" stroke-width="20" stroke-linecap="round"/>
<path d="M-46 272.368C-40.5635 270.365 -36.9045 269.047 -32.0273 267.683C-28.0202 266.563 -20.8552 264.746 -15.4534 262.93C-10.0516 261.113 -6.61806 259.396 -3.91933 257.94C-1.2206 256.483 0.639245 255.339 3.95792 252.818C7.2766 250.297 11.9978 246.434 15.2167 243.943C18.4357 241.453 20.0094 240.451 23.1807 237.789C26.352 235.127 31.0731 230.835 34.0775 227.981C38.3276 223.942 40.1209 221.51 42.85 218.061C44.8166 215.576 48.1542 211.751 51.5661 207.115C54.978 202.478 58.4116 197.185 60.395 194.029C62.8871 190.063 64.6804 187.127 68.5649 181.231C71.0966 177.388 74.4522 171.615 78.1524 166.306C81.8526 160.998 85.7153 156.277 89.6366 152.056C93.5579 147.836 97.4207 144.259 100.126 141.988C102.831 139.716 104.262 138.857 107.359 136.698C110.457 134.54 115.178 131.106 118.969 128.693C122.761 126.281 125.479 124.993 130.027 123.114C134.574 121.234 140.869 118.802 144.899 117.335C148.928 115.867 150.502 115.438 157.965 112.284C165.429 109.13 178.734 103.265 186.303 99.8137C193.873 96.3628 195.303 95.5044 197.829 93.56C200.354 91.6156 203.931 88.6112 207.275 85.3468C210.62 82.0823 213.624 78.6487 216.889 74.2332C220.153 69.8177 223.587 64.5243 226.429 59.2937C229.27 54.0632 231.416 49.0559 232.665 45.6895C234.464 40.8394 235.067 37.2682 236.935 29.8722C238.231 24.336 240.234 15.1798 241.695 6.24256C243.156 -2.69468 244.015 -11.1355 245.333 -20.6992" stroke="white" stroke-opacity="0.46" stroke-width="20" stroke-linecap="round"/>
<path d="M136.513 304.015C136.513 303.729 136.227 296.285 135.937 284.801C135.809 279.749 136.8 277.011 138.449 271.689C139.551 268.135 142.245 263.22 144.356 259.568C147.833 253.552 151.384 250.127 156.198 245.957C159.489 243.106 164.875 239.211 168.246 236.79C172.807 233.513 176.377 231.343 180.272 228.6C183.194 226.543 187.067 224.406 191.253 221.521C193.056 220.278 194.008 219.208 198.387 215.688C202.766 212.167 210.491 206.159 214.9 202.634C219.309 199.109 220.168 198.251 223.399 193.445C226.631 188.64 232.211 179.913 236.087 172.913C239.963 165.914 241.965 160.907 243.212 157.469C245.059 152.373 246.331 147.541 248.635 139.412C250.077 134.325 251.512 127.135 252.466 123.02C253.419 118.906 253.705 118.048 253.924 117.033C254.143 116.019 254.286 114.874 254.434 113.262" stroke="white" stroke-opacity="0.46" stroke-width="20" stroke-linecap="round"/>
</g>
<defs>
<clipPath id="clip0_161_72">
<rect width="243" height="243" rx="15" fill="white"/>
</clipPath>
</defs>
</svg>
