<svg width="250" height="243" viewBox="0 0 250 243" fill="none" xmlns="http://www.w3.org/2000/svg">
<g clip-path="url(#clip0_161_72)">
<rect width="250" height="243" rx="15" fill="#343745"/>
<circle cx="183" cy="44" r="10" fill="#2F4EEA"/>
<path d="M-12.4297 149.621C-9.26491 147.605 -4.64347 145.58 -0.243135 144.067C5.54583 142.077 10.6732 138.076 14.421 134.547C16.3999 132.684 18.1689 130.302 22.9182 123.401C27.6676 116.499 35.25 105.054 39.5138 98.3708C43.7776 91.6879 44.4929 90.1142 45.5767 87.4436C46.6606 84.7731 48.0912 81.0534 50.6165 73.4146C53.1419 65.7758 56.7185 54.3306 59.1332 46.0024C61.548 37.6743 62.6925 32.8101 63.9259 28.8021C65.1593 24.7941 66.4469 21.7897 68.1117 18.6683C69.7764 15.5469 71.7793 12.3995 74.8856 8.489C77.9918 4.57855 82.1407 0.000465393 87.5685 -4.79005C92.9963 -9.58057 99.5773 -14.4448 106.759 -18.8104C113.94 -23.1761 121.523 -26.8958 129.435 -30.2426C137.347 -33.5895 145.358 -36.4508 150.272 -38.0679C155.186 -39.6849 156.76 -39.9711 158.358 -40.4046C159.955 -40.8381 161.529 -41.4104 163.584 -42" stroke="#767676" stroke-opacity="0.46" stroke-width="20" stroke-linecap="round"/>
<path d="M-25 252.368C-19.5635 250.365 -15.9045 249.047 -11.0273 247.683C-7.02021 246.563 0.144789 244.746 5.54658 242.93C10.9484 241.113 14.3819 239.396 17.0807 237.94C19.7794 236.483 21.6392 235.339 24.9579 232.818C28.2766 230.297 32.9978 226.434 36.2167 223.943C39.4357 221.453 41.0094 220.451 44.1807 217.789C47.352 215.127 52.0731 210.835 55.0775 207.981C59.3276 203.942 61.1209 201.51 63.85 198.061C65.8166 195.576 69.1542 191.751 72.5661 187.115C75.978 182.478 79.4116 177.185 81.395 174.029C83.8871 170.063 85.6804 167.127 89.5649 161.231C92.0966 157.388 95.4522 151.615 99.1524 146.306C102.853 140.998 106.715 136.277 110.637 132.056C114.558 127.836 118.421 124.259 121.126 121.988C123.831 119.716 125.262 118.857 128.359 116.698C131.457 114.54 136.178 111.106 139.969 108.693C143.761 106.281 146.479 104.993 151.027 103.114C155.574 101.234 161.869 98.8023 165.899 97.3348C169.928 95.8673 171.502 95.4381 178.965 92.2842C186.429 89.1303 199.734 83.2646 207.303 79.8137C214.873 76.3628 216.303 75.5044 218.829 73.56C221.354 71.6156 224.931 68.6112 228.275 65.3468C231.62 62.0823 234.624 58.6487 237.889 54.2332C241.153 49.8177 244.587 44.5243 247.429 39.2937C250.27 34.0632 252.416 29.0559 253.665 25.6895C255.464 20.8394 256.067 17.2682 257.935 9.87215C259.231 4.33597 261.234 -4.82021 262.695 -13.7574C264.156 -22.6947 265.015 -31.1355 266.333 -40.6992" stroke="#767676" stroke-opacity="0.46" stroke-width="20" stroke-linecap="round"/>
<path d="M157.51 284.015C157.51 283.729 157.223 276.285 156.933 264.801C156.805 259.749 157.796 257.011 159.445 251.689C160.547 248.135 163.241 243.22 165.352 239.568C168.829 233.552 172.38 230.127 177.194 225.957C180.485 223.106 185.871 219.211 189.242 216.79C193.803 213.513 197.373 211.343 201.268 208.6C204.19 206.543 208.064 204.406 212.249 201.521C214.052 200.278 215.004 199.208 219.383 195.688C223.762 192.167 231.487 186.159 235.896 182.634C240.305 179.109 241.164 178.251 244.396 173.445C247.628 168.64 253.207 159.913 257.083 152.913C260.959 145.914 262.962 140.907 264.208 137.469C266.055 132.373 267.327 127.541 269.631 119.412C271.073 114.325 272.508 107.135 273.462 103.02C274.415 98.9063 274.702 98.0479 274.921 97.0334C275.139 96.019 275.282 94.8745 275.43 93.2617" stroke="#767676" stroke-opacity="0.46" stroke-width="20" stroke-linecap="round"/>
<path d="M145.548 91.3778C144.98 85.6487 142.542 81.1979 138.233 78.0256C133.924 74.8532 128.077 73.267 120.69 73.267C115.671 73.267 111.434 73.9773 107.977 75.3977C104.521 76.7708 101.869 78.6884 100.023 81.1506C98.2235 83.6127 97.3239 86.4062 97.3239 89.5312C97.2292 92.1354 97.7737 94.4081 98.9574 96.3494C100.188 98.2907 101.869 99.9716 104 101.392C106.131 102.765 108.593 103.973 111.386 105.014C114.18 106.009 117.163 106.861 120.335 107.571L133.403 110.696C139.748 112.116 145.572 114.01 150.875 116.378C156.178 118.745 160.771 121.657 164.653 125.114C168.536 128.57 171.543 132.642 173.673 137.33C175.851 142.017 176.964 147.391 177.011 153.452C176.964 162.353 174.691 170.071 170.193 176.605C165.742 183.092 159.303 188.134 150.875 191.733C142.494 195.284 132.385 197.06 120.548 197.06C108.806 197.06 98.5786 195.26 89.8665 191.662C81.2017 188.063 74.4309 182.737 69.554 175.682C64.7244 168.58 62.1913 159.796 61.9545 149.332H91.7131C92.0445 154.209 93.4413 158.281 95.9034 161.548C98.4129 164.768 101.751 167.206 105.918 168.864C110.132 170.473 114.89 171.278 120.193 171.278C125.402 171.278 129.923 170.521 133.759 169.006C137.641 167.491 140.648 165.384 142.778 162.685C144.909 159.986 145.974 156.884 145.974 153.381C145.974 150.114 145.004 147.367 143.062 145.142C141.169 142.917 138.375 141.023 134.682 139.46C131.036 137.898 126.562 136.477 121.259 135.199L105.42 131.222C93.1572 128.239 83.4744 123.575 76.3722 117.23C69.2699 110.885 65.7424 102.339 65.7898 91.5909C65.7424 82.7841 68.0862 75.09 72.821 68.5085C77.6032 61.9271 84.161 56.7898 92.4943 53.0966C100.828 49.4034 110.297 47.5568 120.903 47.5568C131.699 47.5568 141.121 49.4034 149.17 53.0966C157.267 56.7898 163.564 61.9271 168.062 68.5085C172.561 75.09 174.881 82.7131 175.023 91.3778H145.548Z" fill="white"/>
</g>
<defs>
<clipPath id="clip0_161_72">
<rect width="250" height="243" rx="15" fill="white"/>
</clipPath>
</defs>
</svg>
