<svg width="341" height="60" viewBox="0 0 341 60" fill="none" xmlns="http://www.w3.org/2000/svg">
<path d="M28.5511 17C28.679 15.5938 28.3381 14.4929 27.5284 13.6974C26.7188 12.8878 25.3551 12.483 23.4375 12.483C22.2159 12.483 21.1932 12.625 20.3693 12.9091C19.5597 13.1932 18.9276 13.5838 18.473 14.081C18.0327 14.5781 17.7557 15.1534 17.642 15.8068C17.5142 16.3182 17.5213 16.7869 17.6634 17.2131C17.8196 17.625 18.1108 18.0014 18.5369 18.3423C18.9773 18.6832 19.5526 18.9886 20.2628 19.2585C20.9872 19.5284 21.8466 19.7699 22.8409 19.983L26.25 20.75C28.5795 21.2614 30.5327 21.9361 32.1094 22.7741C33.7003 23.598 34.9503 24.5781 35.8594 25.7145C36.7685 26.8509 37.3651 28.1222 37.6491 29.5284C37.9474 30.9347 37.9545 32.4687 37.6705 34.1307C37.1875 37 36.0724 39.429 34.3253 41.4176C32.5781 43.4062 30.2983 44.919 27.4858 45.956C24.6733 46.9929 21.4205 47.5114 17.7273 47.5114C13.9489 47.5114 10.7386 46.9503 8.09659 45.8281C5.46875 44.6918 3.56534 42.9588 2.38636 40.6293C1.22159 38.2855 0.9375 35.2955 1.53409 31.6591H12.7841C12.6136 32.9943 12.7557 34.1165 13.2102 35.0256C13.6648 35.9347 14.3963 36.6236 15.4048 37.0923C16.4134 37.5611 17.6705 37.7955 19.1761 37.7955C20.4545 37.7955 21.5483 37.6392 22.4574 37.3267C23.3665 37.0142 24.0838 36.581 24.6094 36.027C25.1349 35.473 25.4545 34.8409 25.5682 34.1307C25.6818 33.4773 25.5682 32.8949 25.2273 32.3835C24.8864 31.8722 24.2685 31.4105 23.3736 30.9986C22.4787 30.5866 21.25 30.2102 19.6875 29.8693L15.5114 28.9318C11.804 28.0795 9.00568 26.6733 7.11648 24.7131C5.22727 22.7528 4.55966 20.0682 5.11364 16.6591C5.56818 13.875 6.71165 11.446 8.54403 9.37216C10.3906 7.28409 12.7344 5.66477 15.5753 4.5142C18.4304 3.34943 21.5909 2.76704 25.0568 2.76704C28.5795 2.76704 31.527 3.35653 33.8991 4.53551C36.2855 5.71449 37.9972 7.36932 39.0341 9.5C40.0852 11.6307 40.3693 14.1307 39.8864 17H28.5511ZM55.8132 47.5966C52.3189 47.5966 49.4212 46.929 47.12 45.5938C44.8189 44.2443 43.1996 42.3125 42.2621 39.7983C41.3246 37.2699 41.1541 34.2443 41.7507 30.7216C42.3189 27.3409 43.4908 24.3864 45.2663 21.858C47.0561 19.3295 49.3075 17.3622 52.0206 15.956C54.7479 14.5497 57.8018 13.8466 61.1825 13.8466C63.6541 13.8466 65.8203 14.2301 67.6811 14.9972C69.5561 15.7642 71.0831 16.8793 72.2621 18.3423C73.4411 19.8054 74.2365 21.5739 74.6484 23.6477C75.0746 25.7074 75.0746 28.0369 74.6484 30.6364L74.2223 33.3636H44.9893L46.0121 26.8864H64.4212C64.5632 25.9489 64.4709 25.125 64.1442 24.4148C63.8317 23.6903 63.3274 23.1293 62.6314 22.7315C61.9496 22.3196 61.1257 22.1136 60.1598 22.1136C59.1939 22.1136 58.2848 22.3196 57.4325 22.7315C56.5945 23.1435 55.8771 23.7187 55.2805 24.4574C54.6982 25.196 54.3075 26.0625 54.1087 27.0568L52.8303 33.875C52.6598 34.9261 52.7237 35.8636 53.022 36.6875C53.3203 37.5114 53.8388 38.1577 54.5774 38.6264C55.3161 39.0952 56.2678 39.3295 57.4325 39.3295C58.228 39.3295 58.9808 39.223 59.6911 39.0099C60.4155 38.7827 61.0547 38.456 61.6087 38.0298C62.1768 37.5895 62.6314 37.0568 62.9723 36.4318H73.7109C72.9439 38.7045 71.7294 40.679 70.0675 42.3551C68.4197 44.017 66.3885 45.3097 63.9737 46.233C61.5732 47.142 58.853 47.5966 55.8132 47.5966ZM95.7262 3.36364L88.4819 47H76.7205L83.9648 3.36364H95.7262ZM94.4744 47L99.929 14.2727H111.69L106.236 47H94.4744ZM106.321 10.8636C104.73 10.8636 103.445 10.3381 102.464 9.28693C101.484 8.22159 101.122 6.95739 101.378 5.49432C101.634 4.00284 102.415 2.73864 103.722 1.7017C105.028 0.650568 106.477 0.125 108.068 0.125C109.673 0.125 110.952 0.650568 111.903 1.7017C112.855 2.73864 113.21 4.00284 112.969 5.49432C112.741 6.95739 111.974 8.22159 110.668 9.28693C109.375 10.3381 107.926 10.8636 106.321 10.8636ZM137.2 14.2727L135.751 22.7955H114.189L115.637 14.2727H137.2ZM121.092 6.43182H132.853L127.868 36.4744C127.797 36.929 127.811 37.3125 127.91 37.625C128.01 37.9233 128.208 38.1506 128.507 38.3068C128.819 38.4489 129.231 38.5199 129.743 38.5199C130.083 38.5199 130.502 38.4773 131 38.392C131.497 38.2926 131.873 38.2216 132.129 38.179L132.47 46.446C131.873 46.6165 131.071 46.8082 130.062 47.0213C129.068 47.2486 127.91 47.3977 126.589 47.4688C123.833 47.5966 121.589 47.3054 119.856 46.5952C118.137 45.8849 116.944 44.777 116.277 43.2713C115.623 41.7514 115.51 39.8551 115.936 37.5824L121.092 6.43182ZM160.302 47.4261C157.972 47.4261 155.927 46.8153 154.165 45.5938C152.418 44.3722 151.161 42.5185 150.394 40.0327C149.641 37.5469 149.577 34.4148 150.202 30.6364C150.856 26.6875 151.999 23.4773 153.633 21.0057C155.281 18.5341 157.17 16.723 159.3 15.5724C161.445 14.4219 163.597 13.8466 165.756 13.8466C167.376 13.8466 168.746 14.1307 169.869 14.6989C171.005 15.2528 171.907 15.9986 172.575 16.9361C173.242 17.8594 173.697 18.875 173.938 19.983H174.109L176.879 3.36364H188.64L181.396 47H169.719L170.614 41.6307H170.359C169.719 42.7386 168.903 43.733 167.908 44.6136C166.928 45.4801 165.799 46.169 164.521 46.6804C163.242 47.1776 161.836 47.4261 160.302 47.4261ZM166.14 38.392C167.219 38.392 168.2 38.0795 169.08 37.4545C169.961 36.8153 170.707 35.9205 171.317 34.7699C171.928 33.6051 172.362 32.2273 172.617 30.6364C172.887 29.017 172.908 27.6321 172.681 26.4815C172.454 25.3168 171.999 24.429 171.317 23.8182C170.65 23.1932 169.776 22.8807 168.697 22.8807C167.617 22.8807 166.644 23.1932 165.778 23.8182C164.911 24.429 164.18 25.3168 163.583 26.4815C163.001 27.6321 162.575 29.017 162.305 30.6364C162.035 32.2557 161.999 33.6477 162.198 34.8125C162.411 35.9631 162.852 36.8509 163.519 37.4759C164.187 38.0866 165.06 38.392 166.14 38.392ZM187.17 47L192.624 14.2727H204.386L198.931 47H187.17ZM199.016 10.8636C197.425 10.8636 196.14 10.3381 195.16 9.28693C194.18 8.22159 193.817 6.95739 194.073 5.49432C194.329 4.00284 195.11 2.73864 196.417 1.7017C197.724 0.650568 199.173 0.125 200.763 0.125C202.369 0.125 203.647 0.650568 204.599 1.7017C205.55 2.73864 205.906 4.00284 205.664 5.49432C205.437 6.95739 204.67 8.22159 203.363 9.28693C202.07 10.3381 200.621 10.8636 199.016 10.8636ZM218.645 59.9545C215.35 59.9545 212.608 59.4858 210.421 58.5483C208.248 57.625 206.642 56.3466 205.605 54.7131C204.583 53.0938 204.157 51.233 204.327 49.1307H215.662C215.691 49.8409 215.897 50.4091 216.28 50.8352C216.664 51.2614 217.196 51.5668 217.878 51.7514C218.56 51.9361 219.355 52.0284 220.265 52.0284C221.799 52.0284 223.127 51.652 224.249 50.8991C225.371 50.1605 226.06 48.8324 226.316 46.9148L227.253 41.375H226.912C226.316 42.483 225.513 43.4276 224.505 44.2088C223.496 44.9759 222.338 45.5653 221.032 45.9773C219.725 46.375 218.333 46.5739 216.855 46.5739C214.526 46.5739 212.473 46.0341 210.698 44.9545C208.936 43.875 207.658 42.1634 206.863 39.8196C206.081 37.4759 206.003 34.4148 206.628 30.6364C207.282 26.6875 208.432 23.4773 210.08 21.0057C211.728 18.5341 213.624 16.723 215.769 15.5724C217.914 14.4219 220.066 13.8466 222.225 13.8466C223.844 13.8466 225.215 14.1307 226.337 14.6989C227.459 15.2528 228.354 15.9986 229.022 16.9361C229.689 17.8594 230.151 18.875 230.407 19.983H230.662L231.6 14.2727H243.361L237.907 46.9148C237.48 49.6989 236.394 52.0568 234.647 53.9886C232.914 55.9347 230.669 57.4119 227.914 58.4205C225.172 59.4432 222.083 59.9545 218.645 59.9545ZM222.566 38.2216C223.645 38.2216 224.625 37.9233 225.506 37.3267C226.387 36.7159 227.132 35.8494 227.743 34.7273C228.354 33.5909 228.787 32.2273 229.043 30.6364C229.299 29.017 229.313 27.6321 229.086 26.4815C228.858 25.3168 228.411 24.429 227.743 23.8182C227.076 23.1932 226.202 22.8807 225.123 22.8807C224.043 22.8807 223.07 23.1932 222.203 23.8182C221.337 24.429 220.605 25.3168 220.009 26.4815C219.412 27.6321 218.986 29.017 218.73 30.6364C218.475 32.2557 218.453 33.6335 218.667 34.7699C218.88 35.892 219.313 36.7514 219.966 37.348C220.62 37.9304 221.486 38.2216 222.566 38.2216ZM243.888 47L249.343 14.2727H261.104L255.65 47H243.888ZM255.735 10.8636C254.144 10.8636 252.859 10.3381 251.879 9.28693C250.898 8.22159 250.536 6.95739 250.792 5.49432C251.048 4.00284 251.829 2.73864 253.136 1.7017C254.442 0.650568 255.891 0.125 257.482 0.125C259.087 0.125 260.366 0.650568 261.317 1.7017C262.269 2.73864 262.624 4.00284 262.383 5.49432C262.156 6.95739 261.388 8.22159 260.082 9.28693C258.789 10.3381 257.34 10.8636 255.735 10.8636ZM286.614 14.2727L285.165 22.7955H263.603L265.051 14.2727H286.614ZM270.506 6.43182H282.267L277.282 36.4744C277.211 36.929 277.225 37.3125 277.324 37.625C277.424 37.9233 277.623 38.1506 277.921 38.3068C278.233 38.4489 278.645 38.5199 279.157 38.5199C279.498 38.5199 279.917 38.4773 280.414 38.392C280.911 38.2926 281.287 38.2216 281.543 38.179L281.884 46.446C281.287 46.6165 280.485 46.8082 279.476 47.0213C278.482 47.2486 277.324 47.3977 276.003 47.4688C273.248 47.5966 271.003 47.3054 269.27 46.5952C267.551 45.8849 266.358 44.777 265.691 43.2713C265.037 41.7514 264.924 39.8551 265.35 37.5824L270.506 6.43182ZM294.993 47.5114C292.919 47.5114 291.136 47.1705 289.645 46.4886C288.168 45.7926 287.088 44.7415 286.406 43.3352C285.739 41.9148 285.589 40.125 285.959 37.9659C286.257 36.1761 286.818 34.6491 287.642 33.3849C288.466 32.1207 289.489 31.0838 290.71 30.2741C291.932 29.4645 293.303 28.8466 294.822 28.4205C296.357 27.9801 297.976 27.696 299.68 27.5682C301.527 27.4261 303.026 27.2486 304.176 27.0355C305.327 26.8224 306.186 26.5312 306.754 26.1619C307.322 25.7926 307.663 25.2955 307.777 24.6705V24.5852C307.905 23.733 307.678 23.0795 307.095 22.625C306.527 22.1705 305.732 21.9432 304.709 21.9432C303.601 21.9432 302.642 22.1847 301.832 22.6676C301.037 23.1506 300.49 23.9034 300.192 24.9261H289.368C289.822 22.9375 290.753 21.1051 292.159 19.429C293.58 17.7386 295.462 16.3892 297.805 15.3807C300.163 14.358 302.976 13.8466 306.243 13.8466C308.572 13.8466 310.618 14.1236 312.379 14.6776C314.141 15.2173 315.597 15.9773 316.747 16.9574C317.912 17.9233 318.729 19.0597 319.197 20.3665C319.68 21.6591 319.794 23.0653 319.538 24.5852L315.788 47H304.794L305.561 42.3977H305.305C304.453 43.6193 303.494 44.6065 302.429 45.3594C301.378 46.1122 300.227 46.6591 298.977 47C297.741 47.3409 296.413 47.5114 294.993 47.5114ZM300.107 40.0966C300.987 40.0966 301.854 39.9119 302.706 39.5426C303.558 39.1733 304.29 38.6406 304.901 37.9446C305.511 37.2486 305.902 36.4034 306.072 35.4091L306.499 32.6818C306.186 32.8097 305.838 32.9304 305.455 33.044C305.085 33.1435 304.695 33.2429 304.283 33.3423C303.885 33.4418 303.459 33.5341 303.004 33.6193C302.564 33.7045 302.109 33.7898 301.641 33.875C300.703 34.017 299.915 34.2514 299.276 34.5781C298.636 34.8906 298.139 35.2812 297.784 35.75C297.429 36.2045 297.209 36.7159 297.124 37.2841C296.996 38.179 297.202 38.875 297.741 39.3722C298.295 39.8551 299.084 40.0966 300.107 40.0966ZM340.414 3.36364L333.169 47H321.408L328.652 3.36364H340.414Z" fill="#717171"/>
</svg>
