<svg width="314" height="234" viewBox="0 0 314 234" fill="none" xmlns="http://www.w3.org/2000/svg">
<rect x="64.1953" y="40.7383" width="251.757" height="162.538" rx="22" transform="rotate(7.13694 64.1953 40.7383)" fill="#3C3D43"/>
<g filter="url(#filter0_d_246_46)">
<rect x="21" y="11" width="252" height="162" rx="22" fill="#313237"/>
</g>
<path d="M65.6882 68.4922H62.8885C62.8374 68.13 62.733 67.8082 62.5753 67.527C62.4176 67.2415 62.2152 66.9986 61.968 66.7983C61.7209 66.598 61.4354 66.4446 61.1115 66.3381C60.7919 66.2315 60.4446 66.1783 60.0696 66.1783C59.392 66.1783 58.8018 66.3466 58.299 66.6832C57.7962 67.0156 57.4063 67.5014 57.1293 68.1406C56.8523 68.7756 56.7138 69.5469 56.7138 70.4545C56.7138 71.3878 56.8523 72.1719 57.1293 72.8068C57.4105 73.4418 57.8026 73.9212 58.3054 74.245C58.8082 74.5689 59.3899 74.7308 60.0504 74.7308C60.4212 74.7308 60.7642 74.6818 61.0795 74.5838C61.3991 74.4858 61.6825 74.343 61.9297 74.1555C62.1768 73.9638 62.3814 73.7315 62.5433 73.4588C62.7095 73.1861 62.8246 72.875 62.8885 72.5256L65.6882 72.5384C65.6158 73.1392 65.4347 73.7188 65.1449 74.277C64.8594 74.831 64.4737 75.3274 63.9879 75.7663C63.5064 76.201 62.9311 76.5462 62.2621 76.8018C61.5973 77.0533 60.8452 77.179 60.0057 77.179C58.8381 77.179 57.794 76.9148 56.8736 76.3864C55.9574 75.858 55.233 75.093 54.7003 74.0916C54.1719 73.0902 53.9077 71.8778 53.9077 70.4545C53.9077 69.027 54.1761 67.8125 54.7131 66.8111C55.25 65.8097 55.9787 65.0469 56.8991 64.5227C57.8196 63.9943 58.8551 63.7301 60.0057 63.7301C60.7642 63.7301 61.4673 63.8366 62.1151 64.0497C62.767 64.2628 63.3445 64.5739 63.8473 64.983C64.3501 65.3878 64.7592 65.8842 65.0746 66.4723C65.3942 67.0604 65.5987 67.7337 65.6882 68.4922ZM67.1104 69.3232V67.1818H76.0082V69.3232H72.8441V77H70.2489V69.3232H67.1104ZM77.6589 80.6818V67.1818H80.3436V68.831H80.465C80.5843 68.5668 80.7569 68.2983 80.9828 68.0256C81.2129 67.7486 81.5112 67.5185 81.8777 67.3352C82.2484 67.1477 82.7086 67.054 83.2583 67.054C83.9743 67.054 84.6348 67.2415 85.2399 67.6165C85.845 67.9872 86.3287 68.5476 86.6909 69.2976C87.0531 70.0433 87.2342 70.9787 87.2342 72.1037C87.2342 73.1989 87.0574 74.1236 86.7037 74.8778C86.3542 75.6278 85.877 76.1967 85.2718 76.5845C84.671 76.968 83.9977 77.1598 83.252 77.1598C82.7235 77.1598 82.274 77.0724 81.9032 76.8977C81.5368 76.723 81.2363 76.5036 81.002 76.2393C80.7676 75.9709 80.5886 75.7003 80.465 75.4276H80.3819V80.6818H77.6589ZM80.3244 72.0909C80.3244 72.6747 80.4054 73.1839 80.5673 73.6186C80.7292 74.0533 80.9636 74.392 81.2704 74.6349C81.5772 74.8736 81.9501 74.9929 82.389 74.9929C82.8322 74.9929 83.2072 74.8714 83.514 74.6286C83.8208 74.3814 84.0531 74.0405 84.2108 73.6058C84.3727 73.1669 84.4537 72.6619 84.4537 72.0909C84.4537 71.5241 84.3748 71.0256 84.2172 70.5952C84.0595 70.1648 83.8272 69.8281 83.5204 69.5852C83.2136 69.3423 82.8365 69.2209 82.389 69.2209C81.9458 69.2209 81.5708 69.3381 81.264 69.5724C80.9615 69.8068 80.7292 70.1392 80.5673 70.5696C80.4054 71 80.3244 71.5071 80.3244 72.0909ZM93.4856 77.1918C92.4927 77.1918 91.6341 76.9808 90.9096 76.5589C90.1895 76.1328 89.6333 75.5405 89.2413 74.782C88.8493 74.0192 88.6532 73.1349 88.6532 72.1293C88.6532 71.1151 88.8493 70.2287 89.2413 69.4702C89.6333 68.7074 90.1895 68.1151 90.9096 67.6932C91.6341 67.267 92.4927 67.054 93.4856 67.054C94.4785 67.054 95.335 67.267 96.0552 67.6932C96.7797 68.1151 97.3379 68.7074 97.7299 69.4702C98.122 70.2287 98.318 71.1151 98.318 72.1293C98.318 73.1349 98.122 74.0192 97.7299 74.782C97.3379 75.5405 96.7797 76.1328 96.0552 76.5589C95.335 76.9808 94.4785 77.1918 93.4856 77.1918ZM93.4984 75.0824C93.9501 75.0824 94.3272 74.9545 94.6298 74.6989C94.9324 74.4389 95.1603 74.0852 95.3137 73.6378C95.4714 73.1903 95.5502 72.6811 95.5502 72.1101C95.5502 71.5391 95.4714 71.0298 95.3137 70.5824C95.1603 70.1349 94.9324 69.7812 94.6298 69.5213C94.3272 69.2614 93.9501 69.1314 93.4984 69.1314C93.0424 69.1314 92.6589 69.2614 92.3478 69.5213C92.041 69.7812 91.8088 70.1349 91.6511 70.5824C91.4977 71.0298 91.421 71.5391 91.421 72.1101C91.421 72.6811 91.4977 73.1903 91.6511 73.6378C91.8088 74.0852 92.041 74.4389 92.3478 74.6989C92.6589 74.9545 93.0424 75.0824 93.4984 75.0824ZM102.69 73.4077L106.225 67.1818H108.91V77H106.314V70.755L102.792 77H100.089V67.1818H102.69V73.4077ZM116.896 73.9893L119.556 67.1818H121.627L117.798 77H115.989L112.249 67.1818H114.314L116.896 73.9893ZM113.694 67.1818V77H111.093V67.1818H113.694ZM120.233 77V67.1818H122.803V77H120.233ZM137.659 67.1818V75.1207H139.225V80.1577H136.579V77H129.075V67.1818H131.676V74.8587H135.09V67.1818H137.659ZM143.507 73.4077L147.041 67.1818H149.726V77H147.131V70.755L143.609 77H140.905V67.1818H143.507V73.4077ZM156.607 80.3366V63.9091H159.324V80.3366H156.607ZM156.607 77.1918C155.853 77.1918 155.165 77.0703 154.542 76.8274C153.92 76.5803 153.383 76.233 152.932 75.7855C152.48 75.3338 152.131 74.799 151.883 74.1811C151.636 73.5589 151.513 72.875 151.513 72.1293C151.513 71.375 151.636 70.6889 151.883 70.071C152.131 69.4489 152.48 68.9141 152.932 68.4666C153.383 68.0149 153.92 67.6676 154.542 67.4247C155.165 67.1776 155.853 67.054 156.607 67.054H157.112V77.1918H156.607ZM156.607 75.0696H156.907V69.1761H156.607C156.241 69.1761 155.915 69.2528 155.629 69.4062C155.344 69.5597 155.103 69.7706 154.907 70.0391C154.711 70.3033 154.562 70.6143 154.459 70.9723C154.361 71.3303 154.312 71.7159 154.312 72.1293C154.312 72.6747 154.402 73.1712 154.581 73.6186C154.76 74.0618 155.022 74.4155 155.367 74.6797C155.712 74.9396 156.126 75.0696 156.607 75.0696ZM159.324 77.1918H158.819V67.054H159.324C160.078 67.054 160.766 67.1776 161.388 67.4247C162.01 67.6676 162.547 68.0149 162.999 68.4666C163.451 68.9141 163.8 69.4489 164.047 70.071C164.295 70.6889 164.418 71.375 164.418 72.1293C164.418 72.875 164.295 73.5589 164.047 74.1811C163.8 74.799 163.451 75.3338 162.999 75.7855C162.547 76.233 162.01 76.5803 161.388 76.8274C160.766 77.0703 160.078 77.1918 159.324 77.1918ZM159.324 75.0696C159.69 75.0696 160.016 74.995 160.302 74.8459C160.587 74.6925 160.828 74.4815 161.024 74.2131C161.22 73.9446 161.369 73.6335 161.471 73.2798C161.574 72.9219 161.625 72.5384 161.625 72.1293C161.625 71.5795 161.533 71.0831 161.35 70.6399C161.171 70.1925 160.911 69.8366 160.57 69.5724C160.229 69.3082 159.814 69.1761 159.324 69.1761H159.023V75.0696H159.324ZM166.2 80.6818V67.1818H168.885V68.831H169.006C169.125 68.5668 169.298 68.2983 169.524 68.0256C169.754 67.7486 170.052 67.5185 170.419 67.3352C170.789 67.1477 171.25 67.054 171.799 67.054C172.515 67.054 173.176 67.2415 173.781 67.6165C174.386 67.9872 174.87 68.5476 175.232 69.2976C175.594 70.0433 175.775 70.9787 175.775 72.1037C175.775 73.1989 175.598 74.1236 175.245 74.8778C174.895 75.6278 174.418 76.1967 173.813 76.5845C173.212 76.968 172.539 77.1598 171.793 77.1598C171.265 77.1598 170.815 77.0724 170.444 76.8977C170.078 76.723 169.777 76.5036 169.543 76.2393C169.309 75.9709 169.13 75.7003 169.006 75.4276H168.923V80.6818H166.2ZM168.865 72.0909C168.865 72.6747 168.946 73.1839 169.108 73.6186C169.27 74.0533 169.505 74.392 169.811 74.6349C170.118 74.8736 170.491 74.9929 170.93 74.9929C171.373 74.9929 171.748 74.8714 172.055 74.6286C172.362 74.3814 172.594 74.0405 172.752 73.6058C172.914 73.1669 172.995 72.6619 172.995 72.0909C172.995 71.5241 172.916 71.0256 172.758 70.5952C172.6 70.1648 172.368 69.8281 172.061 69.5852C171.755 69.3423 171.377 69.2209 170.93 69.2209C170.487 69.2209 170.112 69.3381 169.805 69.5724C169.502 69.8068 169.27 70.1392 169.108 70.5696C168.946 71 168.865 71.5071 168.865 72.0909ZM182.027 77.1918C181.034 77.1918 180.175 76.9808 179.451 76.5589C178.73 76.1328 178.174 75.5405 177.782 74.782C177.39 74.0192 177.194 73.1349 177.194 72.1293C177.194 71.1151 177.39 70.2287 177.782 69.4702C178.174 68.7074 178.73 68.1151 179.451 67.6932C180.175 67.267 181.034 67.054 182.027 67.054C183.02 67.054 183.876 67.267 184.596 67.6932C185.321 68.1151 185.879 68.7074 186.271 69.4702C186.663 70.2287 186.859 71.1151 186.859 72.1293C186.859 73.1349 186.663 74.0192 186.271 74.782C185.879 75.5405 185.321 76.1328 184.596 76.5589C183.876 76.9808 183.02 77.1918 182.027 77.1918ZM182.039 75.0824C182.491 75.0824 182.868 74.9545 183.171 74.6989C183.473 74.4389 183.701 74.0852 183.855 73.6378C184.012 73.1903 184.091 72.6811 184.091 72.1101C184.091 71.5391 184.012 71.0298 183.855 70.5824C183.701 70.1349 183.473 69.7812 183.171 69.5213C182.868 69.2614 182.491 69.1314 182.039 69.1314C181.583 69.1314 181.2 69.2614 180.889 69.5213C180.582 69.7812 180.35 70.1349 180.192 70.5824C180.039 71.0298 179.962 71.5391 179.962 72.1101C179.962 72.6811 180.039 73.1903 180.192 73.6378C180.35 74.0852 180.582 74.4389 180.889 74.6989C181.2 74.9545 181.583 75.0824 182.039 75.0824ZM188.63 77V67.1818H192.816C194.027 67.1818 194.983 67.4119 195.686 67.8722C196.39 68.3324 196.741 68.9865 196.741 69.8345C196.741 70.3672 196.543 70.8104 196.147 71.1641C195.75 71.5178 195.201 71.7564 194.498 71.88C195.086 71.9226 195.586 72.0568 196 72.2827C196.417 72.5043 196.735 72.7919 196.952 73.1456C197.174 73.4993 197.284 73.8913 197.284 74.3217C197.284 74.88 197.135 75.3594 196.837 75.7599C196.543 76.1605 196.11 76.4673 195.539 76.6804C194.973 76.8935 194.28 77 193.462 77H188.63ZM191.167 74.9609H193.462C193.841 74.9609 194.137 74.8714 194.35 74.6925C194.568 74.5092 194.676 74.2599 194.676 73.9446C194.676 73.5952 194.568 73.3203 194.35 73.12C194.137 72.9197 193.841 72.8196 193.462 72.8196H191.167V74.9609ZM191.167 71.2216H192.874C193.147 71.2216 193.379 71.1832 193.571 71.1065C193.767 71.0256 193.916 70.9105 194.018 70.7614C194.125 70.6122 194.178 70.4354 194.178 70.2308C194.178 69.9283 194.056 69.6918 193.814 69.5213C193.571 69.3509 193.238 69.2656 192.816 69.2656H191.167V71.2216ZM200.707 70.1989H203.641C204.941 70.1989 205.955 70.5099 206.684 71.1321C207.413 71.75 207.777 72.5767 207.777 73.6122C207.777 74.2855 207.613 74.8778 207.285 75.3892C206.957 75.8963 206.484 76.2926 205.866 76.5781C205.248 76.8594 204.506 77 203.641 77H199.001V67.1818H201.602V74.8587H203.641C204.097 74.8587 204.472 74.7436 204.766 74.5135C205.06 74.2834 205.21 73.9893 205.214 73.6314C205.21 73.2521 205.06 72.9432 204.766 72.7045C204.472 72.4616 204.097 72.3402 203.641 72.3402H200.707V70.1989ZM208.832 77V67.1818H211.555V77H208.832ZM218.206 77.1918C217.196 77.1918 216.326 76.9872 215.598 76.5781C214.873 76.1648 214.315 75.581 213.923 74.8267C213.531 74.0682 213.335 73.1712 213.335 72.1357C213.335 71.1257 213.531 70.2393 213.923 69.4766C214.315 68.7138 214.867 68.1193 215.578 67.6932C216.294 67.267 217.134 67.054 218.097 67.054C218.745 67.054 219.348 67.1584 219.906 67.3672C220.468 67.5717 220.958 67.8807 221.376 68.294C221.798 68.7074 222.126 69.2273 222.36 69.8537C222.595 70.4759 222.712 71.2045 222.712 72.0398V72.7876H214.422V71.1001H220.149C220.149 70.7081 220.064 70.3608 219.893 70.0582C219.723 69.7557 219.486 69.5192 219.184 69.3487C218.885 69.174 218.538 69.0866 218.142 69.0866C217.728 69.0866 217.362 69.1825 217.042 69.3743C216.727 69.5618 216.48 69.8153 216.301 70.1349C216.122 70.4503 216.03 70.8018 216.026 71.1896V72.794C216.026 73.2798 216.115 73.6996 216.294 74.0533C216.478 74.407 216.735 74.6797 217.068 74.8714C217.4 75.0632 217.794 75.1591 218.25 75.1591C218.553 75.1591 218.83 75.1165 219.081 75.0312C219.333 74.946 219.548 74.8182 219.727 74.6477C219.906 74.4773 220.042 74.2685 220.136 74.0213L222.654 74.1875C222.527 74.7926 222.265 75.321 221.868 75.7727C221.476 76.2202 220.969 76.5696 220.347 76.821C219.729 77.0682 219.015 77.1918 218.206 77.1918ZM59.8906 95.9893L62.5497 89.1818H64.6207L60.7919 99H58.983L55.2436 89.1818H57.3082L59.8906 95.9893ZM56.6882 89.1818V99H54.0866V89.1818H56.6882ZM63.2273 99V89.1818H65.7969V99H63.2273ZM72.3391 99.1918C71.3462 99.1918 70.4876 98.9808 69.7631 98.5589C69.043 98.1328 68.4869 97.5405 68.0948 96.782C67.7028 96.0192 67.5067 95.1349 67.5067 94.1293C67.5067 93.1151 67.7028 92.2287 68.0948 91.4702C68.4869 90.7074 69.043 90.1151 69.7631 89.6932C70.4876 89.267 71.3462 89.054 72.3391 89.054C73.332 89.054 74.1886 89.267 74.9087 89.6932C75.6332 90.1151 76.1914 90.7074 76.5835 91.4702C76.9755 92.2287 77.1715 93.1151 77.1715 94.1293C77.1715 95.1349 76.9755 96.0192 76.5835 96.782C76.1914 97.5405 75.6332 98.1328 74.9087 98.5589C74.1886 98.9808 73.332 99.1918 72.3391 99.1918ZM72.3519 97.0824C72.8036 97.0824 73.1808 96.9545 73.4833 96.6989C73.7859 96.4389 74.0138 96.0852 74.1673 95.6378C74.3249 95.1903 74.4038 94.6811 74.4038 94.1101C74.4038 93.5391 74.3249 93.0298 74.1673 92.5824C74.0138 92.1349 73.7859 91.7812 73.4833 91.5213C73.1808 91.2614 72.8036 91.1314 72.3519 91.1314C71.896 91.1314 71.5124 91.2614 71.2013 91.5213C70.8945 91.7812 70.6623 92.1349 70.5046 92.5824C70.3512 93.0298 70.2745 93.5391 70.2745 94.1101C70.2745 94.6811 70.3512 95.1903 70.5046 95.6378C70.6623 96.0852 70.8945 96.4389 71.2013 96.6989C71.5124 96.9545 71.896 97.0824 72.3519 97.0824ZM83.3782 99.1918C82.3725 99.1918 81.5075 98.9787 80.783 98.5526C80.0629 98.1222 79.5089 97.5256 79.1211 96.7628C78.7376 96 78.5458 95.1222 78.5458 94.1293C78.5458 93.1236 78.7397 92.2415 79.1275 91.483C79.5195 90.7202 80.0756 90.1257 80.7958 89.6996C81.516 89.2692 82.3725 89.054 83.3654 89.054C84.2219 89.054 84.9719 89.2095 85.6154 89.5206C86.2589 89.8317 86.7681 90.2685 87.1431 90.831C87.5181 91.3935 87.7248 92.054 87.7631 92.8125H85.1935C85.1211 92.3224 84.9293 91.9283 84.6183 91.63C84.3114 91.3274 83.9087 91.1761 83.4102 91.1761C82.9883 91.1761 82.6197 91.2912 82.3043 91.5213C81.9933 91.7472 81.7504 92.0774 81.5756 92.5121C81.4009 92.9467 81.3136 93.473 81.3136 94.0909C81.3136 94.7173 81.3988 95.25 81.5692 95.6889C81.744 96.1278 81.989 96.4624 82.3043 96.6925C82.6197 96.9226 82.9883 97.0376 83.4102 97.0376C83.7212 97.0376 84.0004 96.9737 84.2475 96.8459C84.4989 96.718 84.7056 96.5327 84.8675 96.2898C85.0337 96.0426 85.1424 95.7464 85.1935 95.4013H87.7631C87.7205 96.1513 87.516 96.8118 87.1495 97.3828C86.7873 97.9496 86.2866 98.3928 85.6474 98.7124C85.0082 99.032 84.2518 99.1918 83.3782 99.1918ZM88.837 91.3232V89.1818H97.7347V91.3232H94.5707V99H91.9755V91.3232H88.837ZM101.092 92.1989H104.026C105.326 92.1989 106.34 92.5099 107.069 93.1321C107.797 93.75 108.162 94.5767 108.162 95.6122C108.162 96.2855 107.998 96.8778 107.67 97.3892C107.341 97.8963 106.868 98.2926 106.251 98.5781C105.633 98.8594 104.891 99 104.026 99H99.3855V89.1818H101.987V96.8587H104.026C104.482 96.8587 104.857 96.7436 105.151 96.5135C105.445 96.2834 105.594 95.9893 105.599 95.6314C105.594 95.2521 105.445 94.9432 105.151 94.7045C104.857 94.4616 104.482 94.3402 104.026 94.3402H101.092V92.1989ZM109.216 99V89.1818H111.939V99H109.216ZM124.086 95.9893L126.745 89.1818H128.816L124.987 99H123.178L119.439 89.1818H121.504L124.086 95.9893ZM120.884 89.1818V99H118.282V89.1818H120.884ZM127.423 99V89.1818H129.992V99H127.423ZM136.573 99.1918C135.563 99.1918 134.694 98.9872 133.965 98.5781C133.24 98.1648 132.682 97.581 132.29 96.8267C131.898 96.0682 131.702 95.1712 131.702 94.1357C131.702 93.1257 131.898 92.2393 132.29 91.4766C132.682 90.7138 133.234 90.1193 133.946 89.6932C134.662 89.267 135.501 89.054 136.464 89.054C137.112 89.054 137.715 89.1584 138.273 89.3672C138.836 89.5717 139.326 89.8807 139.743 90.294C140.165 90.7074 140.493 91.2273 140.728 91.8537C140.962 92.4759 141.079 93.2045 141.079 94.0398V94.7876H132.789V93.1001H138.516C138.516 92.7081 138.431 92.3608 138.26 92.0582C138.09 91.7557 137.853 91.5192 137.551 91.3487C137.252 91.174 136.905 91.0866 136.509 91.0866C136.096 91.0866 135.729 91.1825 135.409 91.3743C135.094 91.5618 134.847 91.8153 134.668 92.1349C134.489 92.4503 134.397 92.8018 134.393 93.1896V94.794C134.393 95.2798 134.483 95.6996 134.662 96.0533C134.845 96.407 135.103 96.6797 135.435 96.8714C135.767 97.0632 136.162 97.1591 136.618 97.1591C136.92 97.1591 137.197 97.1165 137.449 97.0312C137.7 96.946 137.915 96.8182 138.094 96.6477C138.273 96.4773 138.409 96.2685 138.503 96.0213L141.022 96.1875C140.894 96.7926 140.632 97.321 140.235 97.7727C139.843 98.2202 139.336 98.5696 138.714 98.821C138.096 99.0682 137.382 99.1918 136.573 99.1918ZM142.041 99L145.474 93.8928L142.06 89.1818H145.167L147.717 93.0234H148.139V89.1818H150.862V93.0234H151.271L153.822 89.1818H156.928L153.521 93.8928L156.947 99H153.771L151.246 95.1648H150.862V99H148.139V95.1648H147.756L145.218 99H142.041ZM157.716 101.876V96.8395H158.47C158.688 96.7031 158.862 96.4858 158.994 96.1875C159.131 95.8892 159.242 95.5376 159.327 95.1328C159.416 94.728 159.485 94.2912 159.531 93.8224C159.583 93.3494 159.627 92.8722 159.666 92.3906L159.921 89.1818H167.451V96.8395H168.972V101.876H166.377V99H160.375V101.876H157.716ZM161.181 96.8395H164.882V91.2784H162.235L162.133 92.3906C162.061 93.4389 161.956 94.3295 161.82 95.0625C161.683 95.7912 161.47 96.3835 161.181 96.8395ZM172.24 102.682C171.895 102.682 171.571 102.654 171.269 102.599C170.971 102.548 170.723 102.482 170.527 102.401L171.141 100.368C171.461 100.466 171.748 100.519 172.004 100.528C172.264 100.536 172.488 100.477 172.675 100.349C172.867 100.221 173.022 100.004 173.142 99.6967L173.301 99.2812L169.779 89.1818H172.643L174.676 96.392H174.778L176.83 89.1818H179.713L175.897 100.061C175.713 100.589 175.464 101.05 175.149 101.442C174.838 101.838 174.444 102.143 173.966 102.356C173.489 102.573 172.914 102.682 172.24 102.682ZM187.874 95.4077L191.409 89.1818H194.093V99H191.498V92.755L187.976 99H185.272V89.1818H187.874V95.4077ZM195.509 101.876V96.8395H196.263C196.481 96.7031 196.655 96.4858 196.787 96.1875C196.924 95.8892 197.035 95.5376 197.12 95.1328C197.209 94.728 197.278 94.2912 197.324 93.8224C197.376 93.3494 197.42 92.8722 197.459 92.3906L197.714 89.1818H205.244V96.8395H206.765V101.876H204.17V99H198.168V101.876H195.509ZM198.974 96.8395H202.675V91.2784H200.028L199.926 92.3906C199.854 93.4389 199.749 94.3295 199.613 95.0625C199.476 95.7912 199.263 96.3835 198.974 96.8395ZM212.827 99.1918C211.817 99.1918 210.947 98.9872 210.219 98.5781C209.494 98.1648 208.936 97.581 208.544 96.8267C208.152 96.0682 207.956 95.1712 207.956 94.1357C207.956 93.1257 208.152 92.2393 208.544 91.4766C208.936 90.7138 209.488 90.1193 210.2 89.6932C210.915 89.267 211.755 89.054 212.718 89.054C213.366 89.054 213.969 89.1584 214.527 89.3672C215.089 89.5717 215.58 89.8807 215.997 90.294C216.419 90.7074 216.747 91.2273 216.982 91.8537C217.216 92.4759 217.333 93.2045 217.333 94.0398V94.7876H209.043V93.1001H214.77C214.77 92.7081 214.685 92.3608 214.514 92.0582C214.344 91.7557 214.107 91.5192 213.805 91.3487C213.506 91.174 213.159 91.0866 212.763 91.0866C212.349 91.0866 211.983 91.1825 211.663 91.3743C211.348 91.5618 211.101 91.8153 210.922 92.1349C210.743 92.4503 210.651 92.8018 210.647 93.1896V94.794C210.647 95.2798 210.737 95.6996 210.915 96.0533C211.099 96.407 211.357 96.6797 211.689 96.8714C212.021 97.0632 212.415 97.1591 212.871 97.1591C213.174 97.1591 213.451 97.1165 213.702 97.0312C213.954 96.946 214.169 96.8182 214.348 96.6477C214.527 96.4773 214.663 96.2685 214.757 96.0213L217.276 96.1875C217.148 96.7926 216.886 97.321 216.489 97.7727C216.097 98.2202 215.59 98.5696 214.968 98.821C214.35 99.0682 213.636 99.1918 212.827 99.1918ZM223.585 99.1918C222.575 99.1918 221.705 98.9872 220.977 98.5781C220.252 98.1648 219.694 97.581 219.302 96.8267C218.91 96.0682 218.714 95.1712 218.714 94.1357C218.714 93.1257 218.91 92.2393 219.302 91.4766C219.694 90.7138 220.246 90.1193 220.957 89.6932C221.673 89.267 222.513 89.054 223.476 89.054C224.124 89.054 224.727 89.1584 225.285 89.3672C225.847 89.5717 226.337 89.8807 226.755 90.294C227.177 90.7074 227.505 91.2273 227.739 91.8537C227.974 92.4759 228.091 93.2045 228.091 94.0398V94.7876H219.8V93.1001H225.528C225.528 92.7081 225.442 92.3608 225.272 92.0582C225.102 91.7557 224.865 91.5192 224.562 91.3487C224.264 91.174 223.917 91.0866 223.521 91.0866C223.107 91.0866 222.741 91.1825 222.421 91.3743C222.106 91.5618 221.859 91.8153 221.68 92.1349C221.501 92.4503 221.409 92.8018 221.405 93.1896V94.794C221.405 95.2798 221.494 95.6996 221.673 96.0533C221.857 96.407 222.114 96.6797 222.447 96.8714C222.779 97.0632 223.173 97.1591 223.629 97.1591C223.932 97.1591 224.209 97.1165 224.46 97.0312C224.712 96.946 224.927 96.8182 225.106 96.6477C225.285 96.4773 225.421 96.2685 225.515 96.0213L228.033 96.1875C227.906 96.7926 227.643 97.321 227.247 97.7727C226.855 98.2202 226.348 98.5696 225.726 98.821C225.108 99.0682 224.394 99.1918 223.585 99.1918ZM232.469 95.4077L236.004 89.1818H238.689V99H236.094V92.755L232.572 99H229.868V89.1818H232.469V95.4077ZM235.538 85.7557H237.436C237.432 86.5312 237.144 87.1555 236.573 87.6286C236.006 88.1016 235.239 88.3381 234.272 88.3381C233.3 88.3381 232.531 88.1016 231.964 87.6286C231.398 87.1555 231.114 86.5312 231.114 85.7557H233C232.996 86.0497 233.089 86.3139 233.281 86.5483C233.477 86.7827 233.808 86.8999 234.272 86.8999C234.724 86.8999 235.048 86.7848 235.244 86.5547C235.44 86.3246 235.538 86.0582 235.538 85.7557ZM56.6882 117.408L60.223 111.182H62.9077V121H60.3125V114.755L56.7905 121H54.0866V111.182H56.6882V117.408ZM70.9377 124.682C70.5925 124.682 70.2686 124.654 69.9661 124.599C69.6678 124.548 69.4206 124.482 69.2246 124.401L69.8382 122.368C70.1578 122.466 70.4455 122.519 70.7012 122.528C70.9611 122.536 71.1848 122.477 71.3723 122.349C71.5641 122.221 71.7196 122.004 71.839 121.697L71.9988 121.281L68.4767 111.182H71.3404L73.373 118.392H73.4753L75.5272 111.182H78.41L74.5939 122.061C74.4107 122.589 74.1614 123.05 73.8461 123.442C73.535 123.838 73.1408 124.143 72.6635 124.356C72.1863 124.573 71.611 124.682 70.9377 124.682ZM83.9231 121.192C82.9174 121.192 82.0524 120.979 81.3279 120.553C80.6078 120.122 80.0538 119.526 79.666 118.763C79.2825 118 79.0907 117.122 79.0907 116.129C79.0907 115.124 79.2846 114.241 79.6724 113.483C80.0645 112.72 80.6206 112.126 81.3407 111.7C82.0609 111.269 82.9174 111.054 83.9103 111.054C84.7669 111.054 85.5169 111.21 86.1603 111.521C86.8038 111.832 87.313 112.268 87.688 112.831C88.063 113.393 88.2697 114.054 88.3081 114.812H85.7385C85.666 114.322 85.4743 113.928 85.1632 113.63C84.8564 113.327 84.4537 113.176 83.9551 113.176C83.5332 113.176 83.1646 113.291 82.8493 113.521C82.5382 113.747 82.2953 114.077 82.1206 114.512C81.9458 114.947 81.8585 115.473 81.8585 116.091C81.8585 116.717 81.9437 117.25 82.1142 117.689C82.2889 118.128 82.5339 118.462 82.8493 118.692C83.1646 118.923 83.5332 119.038 83.9551 119.038C84.2662 119.038 84.5453 118.974 84.7924 118.846C85.0439 118.718 85.2505 118.533 85.4125 118.29C85.5787 118.043 85.6873 117.746 85.7385 117.401H88.3081C88.2654 118.151 88.0609 118.812 87.6944 119.383C87.3322 119.95 86.8315 120.393 86.1923 120.712C85.5531 121.032 84.7967 121.192 83.9231 121.192ZM90.0515 121V111.182H98.636V121H96.0344V113.323H92.6211V121H90.0515ZM105.284 121.192C104.274 121.192 103.404 120.987 102.676 120.578C101.951 120.165 101.393 119.581 101.001 118.827C100.609 118.068 100.413 117.171 100.413 116.136C100.413 115.126 100.609 114.239 101.001 113.477C101.393 112.714 101.945 112.119 102.657 111.693C103.373 111.267 104.212 111.054 105.175 111.054C105.823 111.054 106.426 111.158 106.984 111.367C107.547 111.572 108.037 111.881 108.454 112.294C108.876 112.707 109.204 113.227 109.439 113.854C109.673 114.476 109.79 115.205 109.79 116.04V116.788H101.5V115.1H107.227C107.227 114.708 107.142 114.361 106.971 114.058C106.801 113.756 106.564 113.519 106.262 113.349C105.963 113.174 105.616 113.087 105.22 113.087C104.806 113.087 104.44 113.183 104.12 113.374C103.805 113.562 103.558 113.815 103.379 114.135C103.2 114.45 103.108 114.802 103.104 115.19V116.794C103.104 117.28 103.194 117.7 103.373 118.053C103.556 118.407 103.814 118.68 104.146 118.871C104.478 119.063 104.873 119.159 105.328 119.159C105.631 119.159 105.908 119.116 106.159 119.031C106.411 118.946 106.626 118.818 106.805 118.648C106.984 118.477 107.12 118.268 107.214 118.021L109.733 118.188C109.605 118.793 109.343 119.321 108.946 119.773C108.554 120.22 108.047 120.57 107.425 120.821C106.807 121.068 106.093 121.192 105.284 121.192ZM113.667 111.182L115.469 114.614L117.317 111.182H120.11L117.266 116.091L120.187 121H117.406L115.469 117.606L113.565 121H110.752L113.667 116.091L110.854 111.182H113.667ZM125.812 121.192C124.819 121.192 123.96 120.981 123.236 120.559C122.516 120.133 121.96 119.54 121.567 118.782C121.175 118.019 120.979 117.135 120.979 116.129C120.979 115.115 121.175 114.229 121.567 113.47C121.96 112.707 122.516 112.115 123.236 111.693C123.96 111.267 124.819 111.054 125.812 111.054C126.805 111.054 127.661 111.267 128.381 111.693C129.106 112.115 129.664 112.707 130.056 113.47C130.448 114.229 130.644 115.115 130.644 116.129C130.644 117.135 130.448 118.019 130.056 118.782C129.664 119.54 129.106 120.133 128.381 120.559C127.661 120.981 126.805 121.192 125.812 121.192ZM125.825 119.082C126.276 119.082 126.653 118.955 126.956 118.699C127.259 118.439 127.487 118.085 127.64 117.638C127.798 117.19 127.876 116.681 127.876 116.11C127.876 115.539 127.798 115.03 127.64 114.582C127.487 114.135 127.259 113.781 126.956 113.521C126.653 113.261 126.276 113.131 125.825 113.131C125.369 113.131 124.985 113.261 124.674 113.521C124.367 113.781 124.135 114.135 123.977 114.582C123.824 115.03 123.747 115.539 123.747 116.11C123.747 116.681 123.824 117.19 123.977 117.638C124.135 118.085 124.367 118.439 124.674 118.699C124.985 118.955 125.369 119.082 125.825 119.082ZM138.219 117.989L140.878 111.182H142.949L139.12 121H137.311L133.572 111.182H135.636L138.219 117.989ZM135.016 111.182V121H132.415V111.182H135.016ZM141.555 121V111.182H144.125V121H141.555ZM147.823 121.166C147.401 121.166 147.039 121.017 146.736 120.719C146.438 120.416 146.289 120.054 146.289 119.632C146.289 119.214 146.438 118.857 146.736 118.558C147.039 118.26 147.401 118.111 147.823 118.111C148.232 118.111 148.59 118.26 148.897 118.558C149.203 118.857 149.357 119.214 149.357 119.632C149.357 119.913 149.284 120.171 149.14 120.406C148.999 120.636 148.814 120.821 148.583 120.962C148.353 121.098 148.1 121.166 147.823 121.166Z" fill="white"/>
<path d="M246.309 159.688H252.77C253.667 159.688 254.43 159.373 255.058 158.745C255.686 158.117 256 157.355 256 156.457V149.996C256 149.099 255.686 148.336 255.058 147.708C254.43 147.08 253.667 146.766 252.77 146.766H249.001C248.552 146.766 248.171 146.609 247.857 146.295C247.543 145.981 247.386 145.6 247.386 145.151V144.613C247.386 143.424 247.806 142.409 248.648 141.568C249.489 140.727 250.504 140.306 251.693 140.306H252.77C253.061 140.306 253.314 140.199 253.527 139.986C253.74 139.773 253.847 139.521 253.847 139.229V137.075C253.847 136.784 253.74 136.531 253.527 136.318C253.313 136.105 253.061 135.998 252.77 135.998H251.693C250.526 135.998 249.413 136.226 248.353 136.68C247.293 137.134 246.376 137.748 245.602 138.522C244.828 139.296 244.214 140.213 243.76 141.273C243.306 142.333 243.078 143.446 243.078 144.613V156.457C243.078 157.355 243.393 158.117 244.021 158.745C244.649 159.373 245.411 159.688 246.309 159.688Z" fill="#4C4E55"/>
<path d="M228.943 158.745C229.571 159.373 230.334 159.688 231.231 159.688H237.692C238.589 159.688 239.352 159.373 239.98 158.745C240.608 158.117 240.922 157.355 240.922 156.457V149.996C240.922 149.099 240.608 148.336 239.98 147.708C239.352 147.08 238.589 146.766 237.692 146.766H233.923C233.474 146.766 233.093 146.609 232.779 146.295C232.465 145.981 232.308 145.6 232.308 145.151V144.613C232.308 143.424 232.728 142.409 233.57 141.568C234.411 140.727 235.426 140.306 236.615 140.306H237.692C237.983 140.306 238.236 140.199 238.449 139.986C238.662 139.773 238.769 139.521 238.769 139.229V137.075C238.769 136.784 238.662 136.531 238.449 136.318C238.236 136.105 237.983 135.998 237.692 135.998H236.615C235.448 135.998 234.335 136.226 233.275 136.68C232.215 137.134 231.298 137.748 230.524 138.522C229.75 139.296 229.136 140.213 228.682 141.273C228.228 142.333 228.001 143.446 228.001 144.613V156.457C228.001 157.355 228.315 158.117 228.943 158.745Z" fill="#4C4E55"/>
<path d="M271.204 216.827L277.615 217.63C278.505 217.741 279.301 217.524 280.003 216.979C280.704 216.434 281.11 215.716 281.222 214.826L282.025 208.415C282.136 207.525 281.92 206.729 281.374 206.028C280.829 205.327 280.111 204.92 279.221 204.809L275.481 204.34C275.036 204.284 274.677 204.081 274.405 203.731C274.132 203.38 274.024 202.982 274.08 202.537L274.146 202.003C274.294 200.823 274.838 199.868 275.777 199.138C276.716 198.408 277.776 198.117 278.956 198.265L280.024 198.398C280.314 198.435 280.577 198.36 280.815 198.175C281.053 197.99 281.19 197.753 281.226 197.464L281.494 195.327C281.53 195.038 281.456 194.773 281.271 194.536C281.086 194.298 280.849 194.16 280.559 194.124L279.491 193.99C278.333 193.845 277.201 193.933 276.092 194.251C274.984 194.57 273.998 195.066 273.134 195.738C272.27 196.41 271.546 197.243 270.964 198.238C270.381 199.234 270.018 200.31 269.873 201.467L268.4 213.22C268.289 214.111 268.506 214.906 269.051 215.608C269.596 216.309 270.314 216.715 271.204 216.827Z" fill="#313237"/>
<path d="M254.09 213.733C254.636 214.434 255.353 214.84 256.244 214.952L262.654 215.755C263.545 215.866 264.341 215.649 265.042 215.104C265.743 214.559 266.149 213.841 266.261 212.951L267.064 206.54C267.175 205.65 266.959 204.854 266.414 204.153C265.869 203.452 265.151 203.045 264.26 202.934L260.521 202.465C260.076 202.409 259.717 202.206 259.444 201.856C259.172 201.505 259.063 201.107 259.119 200.662L259.186 200.128C259.333 198.948 259.877 197.993 260.816 197.263C261.756 196.533 262.815 196.242 263.995 196.39L265.063 196.523C265.353 196.56 265.617 196.485 265.854 196.3C266.092 196.115 266.23 195.878 266.266 195.589L266.534 193.452C266.57 193.163 266.495 192.899 266.31 192.661C266.125 192.423 265.888 192.285 265.599 192.249L264.53 192.115C263.373 191.97 262.24 192.058 261.132 192.377C260.024 192.695 259.038 193.191 258.173 193.863C257.309 194.535 256.585 195.368 256.003 196.363C255.421 197.358 255.057 198.435 254.912 199.592L253.44 211.345C253.328 212.236 253.545 213.031 254.09 213.733Z" fill="#313237"/>
<path d="M48.6951 26H42.2317C41.3339 26 40.5709 26.3141 39.9424 26.9421C39.3142 27.5703 39 28.3329 39 29.2304V35.6911C39 36.5885 39.314 37.3511 39.9424 37.9791C40.5709 38.6071 41.3341 38.9213 42.2317 38.9213H46.0019C46.4506 38.9213 46.8322 39.0784 47.1464 39.3924C47.4607 39.7062 47.6177 40.0878 47.6177 40.5366V41.0747C47.6177 42.2638 47.1968 43.2785 46.3553 44.12C45.5138 44.9609 44.4984 45.3816 43.3088 45.3816H42.2317C41.9398 45.3816 41.6874 45.4884 41.4741 45.7014C41.261 45.9144 41.1543 46.1668 41.1543 46.4585V48.6123C41.1543 48.9035 41.261 49.1564 41.4741 49.3695C41.6876 49.5824 41.9397 49.6893 42.2317 49.6893H43.3088C44.4759 49.6893 45.5896 49.4618 46.65 49.0077C47.7104 48.5535 48.6277 47.9392 49.402 47.1652C50.1761 46.3912 50.7905 45.4745 51.2449 44.4144C51.6993 43.3544 51.9265 42.2413 51.9265 41.0748V29.2302C51.9265 28.3327 51.6123 27.5701 50.984 26.9421C50.3558 26.314 49.5926 26 48.6951 26Z" fill="#4C4E55"/>
<path d="M66.0538 26.9421C65.4256 26.3141 64.6626 26 63.7648 26H57.3016C56.4039 26 55.6409 26.3141 55.0126 26.9421C54.3844 27.5703 54.0703 28.3329 54.0703 29.2304V35.6911C54.0703 36.5885 54.3844 37.3511 55.0126 37.9791C55.6409 38.6071 56.4039 38.9213 57.3016 38.9213H61.0719C61.5206 38.9213 61.9025 39.0784 62.2166 39.3924C62.5305 39.7064 62.6879 40.0878 62.6879 40.5366V41.0747C62.6879 42.2638 62.267 43.2785 61.4254 44.12C60.5839 44.9609 59.5687 45.3816 58.379 45.3816H57.3016C57.0099 45.3816 56.7573 45.4884 56.5443 45.7014C56.331 45.9144 56.2243 46.1668 56.2243 46.4585V48.6123C56.2243 48.9035 56.331 49.1564 56.5443 49.3695C56.7573 49.5824 57.0099 49.6893 57.3016 49.6893H58.379C59.5459 49.6893 60.6595 49.4618 61.7201 49.0077C62.7803 48.5535 63.6974 47.9392 64.4718 47.1652C65.246 46.3912 65.8608 45.4742 66.3149 44.4144C66.7692 43.3547 66.9966 42.2413 66.9966 41.0748V29.2302C66.9964 28.3327 66.6825 27.5701 66.0538 26.9421Z" fill="#4C4E55"/>
<defs>
<filter id="filter0_d_246_46" x="0.4" y="0.4" width="273.2" height="183.2" filterUnits="userSpaceOnUse" color-interpolation-filters="sRGB">
<feFlood flood-opacity="0" result="BackgroundImageFix"/>
<feColorMatrix in="SourceAlpha" type="matrix" values="0 0 0 0 0 0 0 0 0 0 0 0 0 0 0 0 0 0 127 0" result="hardAlpha"/>
<feMorphology radius="3" operator="erode" in="SourceAlpha" result="effect1_dropShadow_246_46"/>
<feOffset dx="-10"/>
<feGaussianBlur stdDeviation="6.8"/>
<feComposite in2="hardAlpha" operator="out"/>
<feColorMatrix type="matrix" values="0 0 0 0 0 0 0 0 0 0 0 0 0 0 0 0 0 0 0.25 0"/>
<feBlend mode="normal" in2="BackgroundImageFix" result="effect1_dropShadow_246_46"/>
<feBlend mode="normal" in="SourceGraphic" in2="effect1_dropShadow_246_46" result="shape"/>
</filter>
</defs>
</svg>
