<svg width="314" height="234" viewBox="0 0 314 234" fill="none" xmlns="http://www.w3.org/2000/svg">
<rect x="64.1953" y="40.7383" width="251.757" height="162.538" rx="22" transform="rotate(7.13694 64.1953 40.7383)" fill="#3C3D43"/>
<g filter="url(#filter0_d_197_107)">
<rect x="21" y="11" width="252" height="162" rx="22" fill="#313237"/>
</g>
<path d="M90.0959 101L83.0859 91.6996H81.5092V101H76.8963V79.1818H81.5092V87.8963H82.4361L89.6804 79.1818H95.4226L86.9105 89.3026L95.8168 101H90.0959ZM102.718 101.309C101.673 101.309 100.743 101.128 99.9263 100.766C99.1096 100.396 98.4632 99.853 97.9874 99.1357C97.5186 98.4112 97.2843 97.5092 97.2843 96.4297C97.2843 95.5206 97.4512 94.7571 97.785 94.1392C98.1188 93.5213 98.5733 93.0241 99.1486 92.6477C99.7239 92.2713 100.377 91.9872 101.109 91.7955C101.847 91.6037 102.622 91.4688 103.431 91.3906C104.383 91.2912 105.15 91.1989 105.732 91.1136C106.315 91.0213 106.737 90.8864 107 90.7088C107.263 90.5312 107.394 90.2685 107.394 89.9205V89.8565C107.394 89.1818 107.181 88.6598 106.755 88.2905C106.336 87.9212 105.74 87.7365 104.965 87.7365C104.149 87.7365 103.499 87.9176 103.016 88.2798C102.533 88.6349 102.213 89.0824 102.057 89.6222L97.8596 89.2812C98.0726 88.2869 98.4917 87.4276 99.1167 86.7031C99.7417 85.9716 100.548 85.4105 101.535 85.0199C102.529 84.6222 103.68 84.4233 104.987 84.4233C105.896 84.4233 106.766 84.5298 107.597 84.7429C108.435 84.956 109.177 85.2862 109.823 85.7337C110.477 86.1811 110.992 86.7564 111.368 87.4595C111.744 88.1555 111.933 88.9901 111.933 89.9631V101H107.629V98.7308H107.501C107.238 99.2422 106.887 99.6932 106.446 100.084C106.006 100.467 105.477 100.769 104.859 100.989C104.241 101.202 103.527 101.309 102.718 101.309ZM104.017 98.1768C104.685 98.1768 105.274 98.0455 105.786 97.7827C106.297 97.5128 106.698 97.1506 106.99 96.696C107.281 96.2415 107.426 95.7266 107.426 95.1513V93.4148C107.284 93.5071 107.089 93.5923 106.84 93.6705C106.599 93.7415 106.325 93.8089 106.02 93.8729C105.715 93.9297 105.409 93.983 105.104 94.0327C104.798 94.0753 104.521 94.1143 104.273 94.1499C103.74 94.228 103.275 94.3523 102.877 94.5227C102.48 94.6932 102.171 94.924 101.95 95.2152C101.73 95.4993 101.62 95.8544 101.62 96.2805C101.62 96.8984 101.844 97.3707 102.291 97.6974C102.746 98.017 103.321 98.1768 104.017 98.1768ZM115.454 107.136V84.6364H119.928V87.3849H120.131C120.329 86.9446 120.617 86.4972 120.993 86.0426C121.377 85.581 121.874 85.1974 122.485 84.892C123.103 84.5795 123.87 84.4233 124.786 84.4233C125.979 84.4233 127.08 84.7358 128.089 85.3608C129.097 85.9787 129.903 86.9126 130.507 88.1626C131.111 89.4055 131.412 90.9645 131.412 92.8395C131.412 94.6648 131.118 96.206 130.528 97.4631C129.946 98.7131 129.15 99.6612 128.142 100.308C127.14 100.947 126.018 101.266 124.775 101.266C123.895 101.266 123.145 101.121 122.528 100.83C121.917 100.538 121.416 100.173 121.025 99.7322C120.635 99.2848 120.336 98.8338 120.131 98.3793H119.992V107.136H115.454ZM119.896 92.8182C119.896 93.7912 120.031 94.6399 120.301 95.3643C120.571 96.0888 120.961 96.6534 121.473 97.0582C121.984 97.456 122.606 97.6548 123.337 97.6548C124.076 97.6548 124.701 97.4524 125.212 97.0476C125.724 96.6357 126.111 96.0675 126.373 95.343C126.643 94.6115 126.778 93.7699 126.778 92.8182C126.778 91.8736 126.647 91.0426 126.384 90.3253C126.121 89.608 125.734 89.0469 125.223 88.642C124.711 88.2372 124.083 88.0348 123.337 88.0348C122.599 88.0348 121.974 88.2301 121.462 88.6207C120.958 89.0114 120.571 89.5653 120.301 90.2827C120.031 91 119.896 91.8452 119.896 92.8182ZM132.853 88.2053V84.6364H147.683V88.2053H142.409V101H138.084V88.2053H132.853ZM154.77 95.0128L160.661 84.6364H165.136V101H160.811V90.5916L154.941 101H150.434V84.6364H154.77V95.0128ZM180.162 91.0071V94.576H171.618V91.0071H180.162ZM173.11 84.6364V101H168.774V84.6364H173.11ZM183.007 84.6364V101H178.703V84.6364H183.007ZM186.528 101V84.6364H191.066V90.9858H192.345L196.798 84.6364H202.124L196.34 92.7543L202.188 101H196.798L192.76 95.1939H191.066V101H186.528ZM208.772 101.309C207.728 101.309 206.798 101.128 205.981 100.766C205.164 100.396 204.518 99.853 204.042 99.1357C203.573 98.4112 203.339 97.5092 203.339 96.4297C203.339 95.5206 203.506 94.7571 203.84 94.1392C204.173 93.5213 204.628 93.0241 205.203 92.6477C205.779 92.2713 206.432 91.9872 207.164 91.7955C207.902 91.6037 208.676 91.4688 209.486 91.3906C210.438 91.2912 211.205 91.1989 211.787 91.1136C212.369 91.0213 212.792 90.8864 213.055 90.7088C213.318 90.5312 213.449 90.2685 213.449 89.9205V89.8565C213.449 89.1818 213.236 88.6598 212.81 88.2905C212.391 87.9212 211.794 87.7365 211.02 87.7365C210.203 87.7365 209.553 87.9176 209.07 88.2798C208.588 88.6349 208.268 89.0824 208.112 89.6222L203.914 89.2812C204.127 88.2869 204.546 87.4276 205.171 86.7031C205.796 85.9716 206.602 85.4105 207.59 85.0199C208.584 84.6222 209.735 84.4233 211.041 84.4233C211.95 84.4233 212.82 84.5298 213.651 84.7429C214.49 84.956 215.232 85.2862 215.878 85.7337C216.531 86.1811 217.046 86.7564 217.423 87.4595C217.799 88.1555 217.987 88.9901 217.987 89.9631V101H213.683V98.7308H213.556C213.293 99.2422 212.941 99.6932 212.501 100.084C212.061 100.467 211.531 100.769 210.914 100.989C210.296 101.202 209.582 101.309 208.772 101.309ZM210.072 98.1768C210.74 98.1768 211.329 98.0455 211.84 97.7827C212.352 97.5128 212.753 97.1506 213.044 96.696C213.335 96.2415 213.481 95.7266 213.481 95.1513V93.4148C213.339 93.5071 213.144 93.5923 212.895 93.6705C212.654 93.7415 212.38 93.8089 212.075 93.8729C211.769 93.9297 211.464 93.983 211.159 94.0327C210.853 94.0753 210.576 94.1143 210.328 94.1499C209.795 94.228 209.33 94.3523 208.932 94.5227C208.534 94.6932 208.225 94.924 208.005 95.2152C207.785 95.4993 207.675 95.8544 207.675 96.2805C207.675 96.8984 207.899 97.3707 208.346 97.6974C208.801 98.017 209.376 98.1768 210.072 98.1768Z" fill="white"/>
<defs>
<filter id="filter0_d_197_107" x="0.4" y="0.4" width="273.2" height="183.2" filterUnits="userSpaceOnUse" color-interpolation-filters="sRGB">
<feFlood flood-opacity="0" result="BackgroundImageFix"/>
<feColorMatrix in="SourceAlpha" type="matrix" values="0 0 0 0 0 0 0 0 0 0 0 0 0 0 0 0 0 0 127 0" result="hardAlpha"/>
<feMorphology radius="3" operator="erode" in="SourceAlpha" result="effect1_dropShadow_197_107"/>
<feOffset dx="-10"/>
<feGaussianBlur stdDeviation="6.8"/>
<feComposite in2="hardAlpha" operator="out"/>
<feColorMatrix type="matrix" values="0 0 0 0 0 0 0 0 0 0 0 0 0 0 0 0 0 0 0.25 0"/>
<feBlend mode="normal" in2="BackgroundImageFix" result="effect1_dropShadow_197_107"/>
<feBlend mode="normal" in="SourceGraphic" in2="effect1_dropShadow_197_107" result="shape"/>
</filter>
</defs>
</svg>
