<svg width="881" height="80" viewBox="0 0 881 80" fill="none" xmlns="http://www.w3.org/2000/svg">
<path d="M17.9091 62.7102C14.5947 62.7102 11.5928 61.858 8.90341 60.1534C6.23295 58.4299 4.11174 55.9015 2.53977 52.5682C0.986743 49.2159 0.210227 45.1061 0.210227 40.2386C0.210227 35.2386 1.01515 31.0814 2.625 27.767C4.23485 24.4337 6.375 21.9432 9.04545 20.2955C11.7348 18.6288 14.6799 17.7955 17.8807 17.7955C20.3239 17.7955 22.3598 18.2121 23.9886 19.0455C25.6364 19.8598 26.9621 20.8826 27.9659 22.1136C28.9886 23.3258 29.7652 24.5189 30.2955 25.6932H30.6648V3.81818H42.7386V62H30.8068V55.0114H30.2955C29.7273 56.2235 28.9223 57.4261 27.8807 58.6193C26.858 59.7936 25.5227 60.7689 23.875 61.5455C22.2462 62.322 20.2576 62.7102 17.9091 62.7102ZM21.7443 53.0795C23.6951 53.0795 25.3428 52.5492 26.6875 51.4886C28.0511 50.4091 29.0928 48.9034 29.8125 46.9716C30.5511 45.0398 30.9205 42.7765 30.9205 40.1818C30.9205 37.5871 30.5606 35.3333 29.8409 33.4205C29.1212 31.5076 28.0795 30.0303 26.7159 28.9886C25.3523 27.947 23.6951 27.4261 21.7443 27.4261C19.7557 27.4261 18.0795 27.9659 16.7159 29.0455C15.3523 30.125 14.3201 31.6212 13.6193 33.5341C12.9186 35.447 12.5682 37.6629 12.5682 40.1818C12.5682 42.7197 12.9186 44.964 13.6193 46.9148C14.339 48.8466 15.3712 50.3617 16.7159 51.4602C18.0795 52.5398 19.7557 53.0795 21.7443 53.0795ZM52.6889 62V18.3636H64.7912V62H52.6889ZM58.7685 12.7386C56.9692 12.7386 55.4257 12.142 54.1378 10.9489C52.8688 9.73674 52.2344 8.28788 52.2344 6.60227C52.2344 4.9356 52.8688 3.50568 54.1378 2.3125C55.4257 1.10038 56.9692 0.494315 58.7685 0.494315C60.5677 0.494315 62.1018 1.10038 63.3707 2.3125C64.6586 3.50568 65.3026 4.9356 65.3026 6.60227C65.3026 8.28788 64.6586 9.73674 63.3707 10.9489C62.1018 12.142 60.5677 12.7386 58.7685 12.7386ZM94.1449 79.2727C90.2244 79.2727 86.8627 78.733 84.0597 77.6534C81.2756 76.5928 79.0597 75.1439 77.4119 73.3068C75.7642 71.4697 74.6941 69.4053 74.2017 67.1136L85.3949 65.608C85.7358 66.4792 86.2756 67.2936 87.0142 68.0511C87.7528 68.8087 88.7282 69.4148 89.9403 69.8693C91.1714 70.3428 92.6676 70.5795 94.429 70.5795C97.0616 70.5795 99.2301 69.9356 100.935 68.6477C102.658 67.3788 103.52 65.2481 103.52 62.2557V54.2727H103.009C102.478 55.4848 101.683 56.6307 100.622 57.7102C99.5616 58.7898 98.1979 59.6705 96.5312 60.3523C94.8646 61.0341 92.8759 61.375 90.5653 61.375C87.2888 61.375 84.3059 60.6174 81.6165 59.1023C78.946 57.5682 76.8153 55.2292 75.2244 52.0852C73.6525 48.9223 72.8665 44.9261 72.8665 40.0966C72.8665 35.1534 73.6714 31.0246 75.2812 27.7102C76.8911 24.3958 79.0313 21.9148 81.7017 20.267C84.3911 18.6193 87.3362 17.7955 90.5369 17.7955C92.9801 17.7955 95.0256 18.2121 96.6733 19.0455C98.321 19.8598 99.6468 20.8826 100.651 22.1136C101.673 23.3258 102.459 24.5189 103.009 25.6932H103.463V18.3636H115.48V62.4261C115.48 66.1383 114.571 69.2443 112.753 71.7443C110.935 74.2443 108.416 76.1193 105.196 77.3693C101.995 78.6383 98.3116 79.2727 94.1449 79.2727ZM94.4006 52.2841C96.3513 52.2841 97.9991 51.8011 99.3438 50.8352C100.707 49.8504 101.749 48.4489 102.469 46.6307C103.207 44.7936 103.577 42.5966 103.577 40.0398C103.577 37.483 103.217 35.267 102.497 33.392C101.777 31.4981 100.736 30.0303 99.3722 28.9886C98.0085 27.947 96.3513 27.4261 94.4006 27.4261C92.4119 27.4261 90.7358 27.9659 89.3722 29.0455C88.0085 30.1061 86.9763 31.5833 86.2756 33.4773C85.5748 35.3712 85.2244 37.5587 85.2244 40.0398C85.2244 42.5587 85.5748 44.7367 86.2756 46.5739C86.9953 48.392 88.0275 49.803 89.3722 50.8068C90.7358 51.7917 92.4119 52.2841 94.4006 52.2841ZM125.111 62V18.3636H137.213V62H125.111ZM131.19 12.7386C129.391 12.7386 127.848 12.142 126.56 10.9489C125.291 9.73674 124.656 8.28788 124.656 6.60227C124.656 4.9356 125.291 3.50568 126.56 2.3125C127.848 1.10038 129.391 0.494315 131.19 0.494315C132.99 0.494315 134.524 1.10038 135.793 2.3125C137.08 3.50568 137.724 4.9356 137.724 6.60227C137.724 8.28788 137.08 9.73674 135.793 10.9489C134.524 12.142 132.99 12.7386 131.19 12.7386ZM170.118 18.3636V27.4545H143.839V18.3636H170.118ZM149.805 7.90909H161.908V48.5909C161.908 49.7083 162.078 50.5795 162.419 51.2045C162.76 51.8106 163.233 52.2367 163.839 52.483C164.464 52.7292 165.184 52.8523 165.999 52.8523C166.567 52.8523 167.135 52.8049 167.703 52.7102C168.271 52.5966 168.707 52.5114 169.01 52.4545L170.913 61.4602C170.307 61.6496 169.455 61.8674 168.357 62.1136C167.258 62.3788 165.923 62.5398 164.351 62.5966C161.434 62.7102 158.877 62.322 156.68 61.4318C154.502 60.5417 152.807 59.1591 151.595 57.2841C150.383 55.4091 149.786 53.0417 149.805 50.1818V7.90909ZM190.445 62.8239C187.661 62.8239 185.179 62.3409 183.001 61.375C180.823 60.3902 179.1 58.9413 177.831 57.0284C176.581 55.0966 175.956 52.6913 175.956 49.8125C175.956 47.3883 176.401 45.3523 177.291 43.7045C178.181 42.0568 179.393 40.7311 180.928 39.7273C182.462 38.7235 184.204 37.9659 186.155 37.4545C188.125 36.9432 190.189 36.5833 192.348 36.375C194.886 36.1098 196.931 35.8636 198.484 35.6364C200.037 35.3902 201.164 35.0303 201.865 34.5568C202.566 34.0833 202.916 33.3826 202.916 32.4545V32.2841C202.916 30.4848 202.348 29.0928 201.212 28.108C200.094 27.1231 198.503 26.6307 196.439 26.6307C194.261 26.6307 192.528 27.1136 191.24 28.0795C189.952 29.0265 189.1 30.2197 188.683 31.6591L177.49 30.75C178.058 28.0985 179.176 25.8068 180.842 23.875C182.509 21.9242 184.659 20.428 187.291 19.3864C189.943 18.3258 193.011 17.7955 196.496 17.7955C198.92 17.7955 201.24 18.0795 203.456 18.6477C205.691 19.2159 207.67 20.0966 209.393 21.2898C211.136 22.483 212.509 24.017 213.513 25.892C214.517 27.7481 215.018 29.9735 215.018 32.5682V62H203.541V55.9489H203.2C202.5 57.3125 201.562 58.5152 200.388 59.5568C199.214 60.5795 197.803 61.3845 196.155 61.9716C194.507 62.5398 192.604 62.8239 190.445 62.8239ZM193.911 54.4716C195.691 54.4716 197.263 54.1212 198.626 53.4205C199.99 52.7008 201.06 51.7348 201.837 50.5227C202.613 49.3106 203.001 47.9375 203.001 46.4034V41.7727C202.623 42.0189 202.102 42.2462 201.439 42.4545C200.795 42.6439 200.066 42.8239 199.251 42.9943C198.437 43.1458 197.623 43.2879 196.808 43.4205C195.994 43.5341 195.255 43.6383 194.592 43.733C193.172 43.9413 191.931 44.2727 190.871 44.7273C189.81 45.1818 188.986 45.7973 188.399 46.5739C187.812 47.3314 187.518 48.2784 187.518 49.4148C187.518 51.0625 188.115 52.322 189.308 53.1932C190.52 54.0455 192.054 54.4716 193.911 54.4716ZM236.51 3.81818V62H224.408V3.81818H236.51ZM264.72 78.3636V18.3636H276.652V25.6932H277.192C277.722 24.5189 278.489 23.3258 279.493 22.1136C280.516 20.8826 281.841 19.8598 283.47 19.0455C285.118 18.2121 287.163 17.7955 289.607 17.7955C292.788 17.7955 295.724 18.6288 298.413 20.2955C301.103 21.9432 303.252 24.4337 304.862 27.767C306.472 31.0814 307.277 35.2386 307.277 40.2386C307.277 45.1061 306.491 49.2159 304.919 52.5682C303.366 55.9015 301.245 58.4299 298.555 60.1534C295.885 61.858 292.893 62.7102 289.578 62.7102C287.23 62.7102 285.232 62.322 283.584 61.5455C281.955 60.7689 280.62 59.7936 279.578 58.6193C278.536 57.4261 277.741 56.2235 277.192 55.0114H276.822V78.3636H264.72ZM276.567 40.1818C276.567 42.7765 276.927 45.0398 277.646 46.9716C278.366 48.9034 279.408 50.4091 280.771 51.4886C282.135 52.5492 283.792 53.0795 285.743 53.0795C287.713 53.0795 289.379 52.5398 290.743 51.4602C292.107 50.3617 293.139 48.8466 293.839 46.9148C294.559 44.964 294.919 42.7197 294.919 40.1818C294.919 37.6629 294.569 35.447 293.868 33.5341C293.167 31.6212 292.135 30.125 290.771 29.0455C289.408 27.9659 287.732 27.4261 285.743 27.4261C283.773 27.4261 282.107 27.947 280.743 28.9886C279.398 30.0303 278.366 31.5076 277.646 33.4205C276.927 35.3333 276.567 37.5871 276.567 40.1818ZM315.345 62V18.3636H327.078V25.9773H327.533C328.328 23.2689 329.663 21.2235 331.538 19.8409C333.413 18.4394 335.572 17.7386 338.016 17.7386C338.622 17.7386 339.275 17.7765 339.976 17.8523C340.677 17.928 341.292 18.0322 341.822 18.1648V28.9034C341.254 28.733 340.468 28.5814 339.464 28.4489C338.461 28.3163 337.542 28.25 336.709 28.25C334.929 28.25 333.338 28.6383 331.936 29.4148C330.554 30.1723 329.455 31.233 328.641 32.5966C327.845 33.9602 327.447 35.5322 327.447 37.3125V62H315.345ZM365.764 62.8523C361.351 62.8523 357.535 61.9148 354.315 60.0398C351.115 58.1458 348.643 55.5133 346.901 52.142C345.158 48.7519 344.287 44.822 344.287 40.3523C344.287 35.8447 345.158 31.9053 346.901 28.5341C348.643 25.1439 351.115 22.5114 354.315 20.6364C357.535 18.7424 361.351 17.7955 365.764 17.7955C370.177 17.7955 373.984 18.7424 377.185 20.6364C380.404 22.5114 382.885 25.1439 384.628 28.5341C386.37 31.9053 387.241 35.8447 387.241 40.3523C387.241 44.822 386.37 48.7519 384.628 52.142C382.885 55.5133 380.404 58.1458 377.185 60.0398C373.984 61.9148 370.177 62.8523 365.764 62.8523ZM365.821 53.4773C367.829 53.4773 369.505 52.9091 370.849 51.7727C372.194 50.6174 373.207 49.0455 373.889 47.0568C374.59 45.0682 374.94 42.8049 374.94 40.267C374.94 37.7292 374.59 35.4659 373.889 33.4773C373.207 31.4886 372.194 29.9167 370.849 28.7614C369.505 27.6061 367.829 27.0284 365.821 27.0284C363.795 27.0284 362.09 27.6061 360.707 28.7614C359.344 29.9167 358.312 31.4886 357.611 33.4773C356.929 35.4659 356.588 37.7292 356.588 40.267C356.588 42.8049 356.929 45.0682 357.611 47.0568C358.312 49.0455 359.344 50.6174 360.707 51.7727C362.09 52.9091 363.795 53.4773 365.821 53.4773ZM411.19 62.7102C407.876 62.7102 404.874 61.858 402.185 60.1534C399.514 58.4299 397.393 55.9015 395.821 52.5682C394.268 49.2159 393.491 45.1061 393.491 40.2386C393.491 35.2386 394.296 31.0814 395.906 27.767C397.516 24.4337 399.656 21.9432 402.327 20.2955C405.016 18.6288 407.961 17.7955 411.162 17.7955C413.605 17.7955 415.641 18.2121 417.27 19.0455C418.918 19.8598 420.243 20.8826 421.247 22.1136C422.27 23.3258 423.046 24.5189 423.577 25.6932H423.946V3.81818H436.02V62H424.088V55.0114H423.577C423.009 56.2235 422.204 57.4261 421.162 58.6193C420.139 59.7936 418.804 60.7689 417.156 61.5455C415.527 62.322 413.539 62.7102 411.19 62.7102ZM415.026 53.0795C416.976 53.0795 418.624 52.5492 419.969 51.4886C421.332 50.4091 422.374 48.9034 423.094 46.9716C423.832 45.0398 424.202 42.7765 424.202 40.1818C424.202 37.5871 423.842 35.3333 423.122 33.4205C422.402 31.5076 421.361 30.0303 419.997 28.9886C418.634 27.947 416.976 27.4261 415.026 27.4261C413.037 27.4261 411.361 27.9659 409.997 29.0455C408.634 30.125 407.601 31.6212 406.901 33.5341C406.2 35.447 405.849 37.6629 405.849 40.1818C405.849 42.7197 406.2 44.964 406.901 46.9148C407.62 48.8466 408.652 50.3617 409.997 51.4602C411.361 52.5398 413.037 53.0795 415.026 53.0795ZM473.953 43.4205V18.3636H486.055V62H474.436V54.0739H473.982C472.997 56.6307 471.358 58.6856 469.067 60.2386C466.794 61.7917 464.019 62.5682 460.743 62.5682C457.826 62.5682 455.26 61.9053 453.044 60.5795C450.828 59.2538 449.095 57.3693 447.845 54.9261C446.614 52.483 445.989 49.5568 445.97 46.1477V18.3636H458.072V43.9886C458.091 46.5644 458.783 48.6004 460.146 50.0966C461.51 51.5928 463.338 52.3409 465.629 52.3409C467.088 52.3409 468.451 52.0095 469.72 51.3466C470.989 50.6648 472.012 49.661 472.788 48.3352C473.584 47.0095 473.972 45.3712 473.953 43.4205ZM515.452 62.8523C510.982 62.8523 507.137 61.9053 503.918 60.0114C500.717 58.0985 498.255 55.447 496.531 52.0568C494.827 48.6667 493.974 44.7652 493.974 40.3523C493.974 35.8826 494.836 31.9621 496.56 28.5909C498.302 25.2008 500.774 22.5587 503.974 20.6648C507.175 18.7519 510.982 17.7955 515.395 17.7955C519.202 17.7955 522.535 18.4867 525.395 19.8693C528.255 21.2519 530.518 23.1932 532.185 25.6932C533.851 28.1932 534.77 31.1288 534.94 34.5H523.52C523.198 32.322 522.346 30.5701 520.963 29.2443C519.599 27.8996 517.81 27.2273 515.594 27.2273C513.719 27.2273 512.08 27.7386 510.679 28.7614C509.296 29.7652 508.217 31.233 507.44 33.1648C506.664 35.0966 506.276 37.4356 506.276 40.1818C506.276 42.9659 506.654 45.3333 507.412 47.2841C508.188 49.2348 509.277 50.7216 510.679 51.7443C512.08 52.767 513.719 53.2784 515.594 53.2784C516.976 53.2784 518.217 52.9943 519.315 52.4261C520.433 51.858 521.351 51.0341 522.071 49.9545C522.81 48.8561 523.293 47.5398 523.52 46.0057H534.94C534.751 49.339 533.842 52.2746 532.213 54.8125C530.603 57.3314 528.378 59.3011 525.537 60.7216C522.696 62.142 519.334 62.8523 515.452 62.8523ZM565.899 18.3636V27.4545H539.621V18.3636H565.899ZM545.587 7.90909H557.689V48.5909C557.689 49.7083 557.859 50.5795 558.2 51.2045C558.541 51.8106 559.015 52.2367 559.621 52.483C560.246 52.7292 560.965 52.8523 561.78 52.8523C562.348 52.8523 562.916 52.8049 563.484 52.7102C564.053 52.5966 564.488 52.5114 564.791 52.4545L566.695 61.4602C566.089 61.6496 565.236 61.8674 564.138 62.1136C563.039 62.3788 561.704 62.5398 560.132 62.5966C557.215 62.7102 554.659 62.322 552.462 61.4318C550.284 60.5417 548.589 59.1591 547.376 57.2841C546.164 55.4091 545.568 53.0417 545.587 50.1818V7.90909ZM573.783 62V18.3636H585.885V62H573.783ZM579.862 12.7386C578.063 12.7386 576.519 12.142 575.232 10.9489C573.963 9.73674 573.328 8.28788 573.328 6.60227C573.328 4.9356 573.963 3.50568 575.232 2.3125C576.519 1.10038 578.063 0.494315 579.862 0.494315C581.661 0.494315 583.196 1.10038 584.464 2.3125C585.752 3.50568 586.396 4.9356 586.396 6.60227C586.396 8.28788 585.752 9.73674 584.464 10.9489C583.196 12.142 581.661 12.7386 579.862 12.7386ZM615.295 62.8523C610.883 62.8523 607.066 61.9148 603.847 60.0398C600.646 58.1458 598.174 55.5133 596.432 52.142C594.689 48.7519 593.818 44.822 593.818 40.3523C593.818 35.8447 594.689 31.9053 596.432 28.5341C598.174 25.1439 600.646 22.5114 603.847 20.6364C607.066 18.7424 610.883 17.7955 615.295 17.7955C619.708 17.7955 623.515 18.7424 626.716 20.6364C629.936 22.5114 632.417 25.1439 634.159 28.5341C635.902 31.9053 636.773 35.8447 636.773 40.3523C636.773 44.822 635.902 48.7519 634.159 52.142C632.417 55.5133 629.936 58.1458 626.716 60.0398C623.515 61.9148 619.708 62.8523 615.295 62.8523ZM615.352 53.4773C617.36 53.4773 619.036 52.9091 620.381 51.7727C621.725 50.6174 622.739 49.0455 623.42 47.0568C624.121 45.0682 624.472 42.8049 624.472 40.267C624.472 37.7292 624.121 35.4659 623.42 33.4773C622.739 31.4886 621.725 29.9167 620.381 28.7614C619.036 27.6061 617.36 27.0284 615.352 27.0284C613.326 27.0284 611.621 27.6061 610.239 28.7614C608.875 29.9167 607.843 31.4886 607.142 33.4773C606.46 35.4659 606.119 37.7292 606.119 40.267C606.119 42.8049 606.46 45.0682 607.142 47.0568C607.843 49.0455 608.875 50.6174 610.239 51.7727C611.621 52.9091 613.326 53.4773 615.352 53.4773ZM656.744 36.7727V62H644.642V18.3636H656.176V26.0625H656.688C657.653 23.5246 659.273 21.517 661.545 20.0398C663.818 18.5436 666.574 17.7955 669.812 17.7955C672.843 17.7955 675.485 18.4583 677.739 19.7841C679.992 21.1098 681.744 23.0038 682.994 25.4659C684.244 27.9091 684.869 30.8258 684.869 34.2159V62H672.767V36.375C672.786 33.7045 672.104 31.6212 670.722 30.125C669.339 28.6098 667.436 27.8523 665.011 27.8523C663.383 27.8523 661.943 28.2027 660.693 28.9034C659.462 29.6042 658.496 30.6269 657.795 31.9716C657.114 33.2973 656.763 34.8977 656.744 36.7727ZM744.713 20.5511C744.486 18.2595 743.51 16.4792 741.787 15.2102C740.063 13.9413 737.724 13.3068 734.77 13.3068C732.762 13.3068 731.067 13.5909 729.685 14.1591C728.302 14.7083 727.241 15.4754 726.503 16.4602C725.783 17.4451 725.423 18.5625 725.423 19.8125C725.385 20.8542 725.603 21.7633 726.077 22.5398C726.569 23.3163 727.241 23.9886 728.094 24.5568C728.946 25.1061 729.931 25.589 731.048 26.0057C732.166 26.4034 733.359 26.7443 734.628 27.0284L739.855 28.2784C742.393 28.8466 744.723 29.6042 746.844 30.5511C748.965 31.4981 750.802 32.6629 752.355 34.0455C753.908 35.428 755.111 37.0568 755.963 38.9318C756.834 40.8068 757.279 42.9564 757.298 45.3807C757.279 48.9413 756.37 52.0284 754.571 54.642C752.791 57.2367 750.215 59.2538 746.844 60.6932C743.491 62.1136 739.448 62.8239 734.713 62.8239C730.016 62.8239 725.925 62.1042 722.44 60.6648C718.974 59.2254 716.266 57.0947 714.315 54.2727C712.384 51.4318 711.37 47.9186 711.276 43.733H723.179C723.312 45.6837 723.87 47.3125 724.855 48.6193C725.859 49.9072 727.194 50.8826 728.861 51.5455C730.546 52.1894 732.45 52.5114 734.571 52.5114C736.654 52.5114 738.463 52.2083 739.997 51.6023C741.55 50.9962 742.753 50.1534 743.605 49.0739C744.457 47.9943 744.884 46.7538 744.884 45.3523C744.884 44.0455 744.495 42.947 743.719 42.0568C742.961 41.1667 741.844 40.4091 740.366 39.7841C738.908 39.1591 737.118 38.5909 734.997 38.0795L728.662 36.4886C723.757 35.2955 719.884 33.4299 717.043 30.892C714.202 28.3542 712.791 24.9356 712.81 20.6364C712.791 17.1136 713.728 14.036 715.622 11.4034C717.535 8.77083 720.158 6.71591 723.491 5.23864C726.825 3.76136 730.613 3.02273 734.855 3.02273C739.173 3.02273 742.942 3.76136 746.162 5.23864C749.401 6.71591 751.92 8.77083 753.719 11.4034C755.518 14.036 756.446 17.0852 756.503 20.5511H744.713ZM785.232 62.8523C780.743 62.8523 776.879 61.9432 773.641 60.125C770.421 58.2879 767.94 55.6932 766.197 52.3409C764.455 48.9697 763.584 44.983 763.584 40.3807C763.584 35.892 764.455 31.9527 766.197 28.5625C767.94 25.1723 770.393 22.5303 773.555 20.6364C776.737 18.7424 780.468 17.7955 784.749 17.7955C787.627 17.7955 790.307 18.2595 792.788 19.1875C795.288 20.0966 797.466 21.4697 799.322 23.3068C801.197 25.1439 802.656 27.4545 803.697 30.2386C804.739 33.0038 805.26 36.2424 805.26 39.9545V43.2784H768.413V35.7784H793.868C793.868 34.036 793.489 32.4924 792.732 31.1477C791.974 29.803 790.923 28.7519 789.578 27.9943C788.252 27.2178 786.709 26.8295 784.947 26.8295C783.11 26.8295 781.482 27.2557 780.061 28.108C778.66 28.9413 777.561 30.0682 776.766 31.4886C775.97 32.8902 775.563 34.4527 775.544 36.1761V43.3068C775.544 45.4659 775.942 47.3314 776.737 48.9034C777.552 50.4754 778.697 51.6875 780.175 52.5398C781.652 53.392 783.404 53.8182 785.43 53.8182C786.775 53.8182 788.006 53.6288 789.124 53.25C790.241 52.8712 791.197 52.303 791.993 51.5455C792.788 50.7879 793.394 49.8598 793.811 48.7614L805.004 49.5C804.436 52.1894 803.271 54.5379 801.51 56.5455C799.768 58.5341 797.514 60.0871 794.749 61.2045C792.002 62.303 788.83 62.8523 785.232 62.8523ZM825.26 3.81818V62H813.158V3.81818H825.26ZM834.955 62V18.3636H847.057V62H834.955ZM841.034 12.7386C839.235 12.7386 837.691 12.142 836.403 10.9489C835.134 9.73674 834.5 8.28788 834.5 6.60227C834.5 4.9356 835.134 3.50568 836.403 2.3125C837.691 1.10038 839.235 0.494315 841.034 0.494315C842.833 0.494315 844.367 1.10038 845.636 2.3125C846.924 3.50568 847.568 4.9356 847.568 6.60227C847.568 8.28788 846.924 9.73674 845.636 10.9489C844.367 12.142 842.833 12.7386 841.034 12.7386ZM879.962 18.3636V27.4545H853.683V18.3636H879.962ZM859.649 7.90909H871.751V48.5909C871.751 49.7083 871.922 50.5795 872.263 51.2045C872.604 51.8106 873.077 52.2367 873.683 52.483C874.308 52.7292 875.028 52.8523 875.842 52.8523C876.411 52.8523 876.979 52.8049 877.547 52.7102C878.115 52.5966 878.551 52.5114 878.854 52.4545L880.757 61.4602C880.151 61.6496 879.299 61.8674 878.2 62.1136C877.102 62.3788 875.767 62.5398 874.195 62.5966C871.278 62.7102 868.721 62.322 866.524 61.4318C864.346 60.5417 862.651 59.1591 861.439 57.2841C860.227 55.4091 859.63 53.0417 859.649 50.1818V7.90909Z" fill="#595959"/>
</svg>
