<svg width="636" height="233" viewBox="0 0 636 233" fill="none" xmlns="http://www.w3.org/2000/svg">
<path d="M635.745 220.531C631.391 224.093 626.049 226.764 619.717 228.545C613.583 230.326 607.053 231.216 600.128 231.216C582.715 231.216 569.26 226.665 559.762 217.563C550.265 208.461 545.516 195.204 545.516 177.791V35.6211H582.616V71.8314H625.06V101.512H582.616V176.901C582.616 184.618 584.496 190.554 588.256 194.709C592.213 198.666 597.654 200.645 604.58 200.645C612.891 200.645 619.816 198.468 625.356 194.115L635.745 220.531Z" fill="#292929"/>
<path fill-rule="evenodd" clip-rule="evenodd" d="M503.951 70.6397H466.85V229.134H503.951V70.6397Z" fill="#292929"/>
<path d="M485.549 44.5208C478.822 44.5208 473.182 42.4432 468.631 38.2879C464.08 33.9348 461.805 28.5923 461.805 22.2604C461.805 15.9286 464.08 10.685 468.631 6.52971C473.182 2.17657 478.822 0 485.549 0C492.277 0 497.916 2.07764 502.467 6.23291C507.018 10.1903 509.294 15.236 509.294 21.37C509.294 27.8997 507.018 33.4401 502.467 37.9911C498.114 42.3443 492.475 44.5208 485.549 44.5208Z" fill="#2F4EEA"/>
<path d="M425.316 231.214C408.893 231.214 396.031 226.762 386.731 217.857C377.629 208.755 373.078 195.993 373.078 179.569V8.90625H410.179V176.898C410.179 192.728 417.599 200.643 432.439 200.643C437.386 200.643 441.838 199.653 445.796 197.675L447.576 227.355C440.651 229.928 433.231 231.214 425.316 231.214Z" fill="#292929"/>
<path d="M270.05 199.751C287.264 199.751 301.61 194.012 313.086 182.536L332.676 205.39C325.75 213.898 316.846 220.329 305.963 224.682C295.08 229.035 282.812 231.212 269.159 231.212C251.747 231.212 236.412 227.749 223.154 220.824C209.897 213.898 199.608 204.302 192.287 192.034C185.163 179.568 181.602 165.519 181.602 149.887C181.602 134.453 185.064 120.602 191.99 108.335C199.113 95.8687 208.809 86.173 221.077 79.2476C233.543 72.3221 247.591 68.8594 263.223 68.8594C278.063 68.8594 291.519 72.1242 303.589 78.654C315.857 84.9858 325.552 94.1868 332.676 106.257C339.799 118.129 343.361 132.079 343.361 148.106L221.967 171.851C225.727 180.953 231.762 187.878 240.072 192.627C248.383 197.376 258.375 199.751 270.05 199.751ZM263.223 98.5399C249.57 98.5399 238.489 102.992 229.981 111.896C221.67 120.8 217.515 132.772 217.515 147.81V148.106L307.15 130.892C304.578 121.196 299.334 113.38 291.42 107.444C283.703 101.508 274.304 98.5399 263.223 98.5399Z" fill="#292929"/>
<path d="M81.9184 232.106C65.8908 232.106 50.358 229.831 35.3199 225.28C20.4796 220.729 8.7063 214.694 0 207.175L13.3563 177.197C21.8647 183.925 32.2529 189.465 44.5208 193.818C56.9867 197.974 69.4525 200.051 81.9184 200.051C97.3522 200.051 108.829 197.578 116.348 192.631C124.065 187.684 127.923 181.155 127.923 173.042C127.923 167.106 125.747 162.258 121.393 158.499C117.238 154.541 111.896 151.474 105.366 149.298C98.8363 147.121 89.9321 144.648 78.6535 141.877C62.8239 138.118 49.9623 134.358 40.0688 130.599C30.3731 126.839 21.9636 121.002 14.8403 113.087C7.91482 104.975 4.45208 94.0917 4.45208 80.4386C4.45208 68.9621 7.51908 58.5739 13.6531 49.274C19.9849 39.7763 29.3838 32.2572 41.8496 26.7168C54.5133 21.1764 69.9472 18.4062 88.1513 18.4062C100.815 18.4062 113.281 19.9892 125.549 23.1551C137.817 26.3211 148.403 30.8721 157.307 36.8082L145.138 66.7856C136.036 61.4431 126.538 57.3867 116.645 54.6165C106.751 51.8463 97.1544 50.4612 87.8545 50.4612C72.6184 50.4612 61.2409 53.0336 53.7218 58.1782C46.4006 63.3228 42.74 70.1494 42.74 78.6578C42.74 84.5939 44.8176 89.4417 48.9729 93.2013C53.3261 96.9608 58.7675 99.9289 65.2972 102.105C71.827 104.282 80.7311 106.755 92.0097 109.526C107.444 113.087 120.107 116.847 130.001 120.804C139.894 124.564 148.304 130.401 155.229 138.316C162.353 146.231 165.914 156.916 165.914 170.371C165.914 181.847 162.748 192.235 156.417 201.535C150.283 210.835 140.884 218.255 128.22 223.796C115.556 229.336 100.122 232.106 81.9184 232.106Z" fill="#292929"/>
</svg>
